<?xml version="1.0" encoding="utf-8" standalone="no"?>
<!DOCTYPE svg PUBLIC "-//W3C//DTD SVG 1.1//EN"
  "http://www.w3.org/Graphics/SVG/1.1/DTD/svg11.dtd">
<svg xmlns:xlink="http://www.w3.org/1999/xlink" width="1172.10125pt" height="619.249375pt" viewBox="0 0 1172.10125 619.249375" xmlns="http://www.w3.org/2000/svg" version="1.1">
 <metadata>
  <rdf:RDF xmlns:dc="http://purl.org/dc/elements/1.1/" xmlns:cc="http://creativecommons.org/ns#" xmlns:rdf="http://www.w3.org/1999/02/22-rdf-syntax-ns#">
   <cc:Work>
    <dc:type rdf:resource="http://purl.org/dc/dcmitype/StillImage"/>
    <dc:date>2025-11-15T06:03:58.247939</dc:date>
    <dc:format>image/svg+xml</dc:format>
    <dc:creator>
     <cc:Agent>
      <dc:title>Matplotlib v3.10.0, https://matplotlib.org/</dc:title>
     </cc:Agent>
    </dc:creator>
   </cc:Work>
  </rdf:RDF>
 </metadata>
 <defs>
  <style type="text/css">*{stroke-linejoin: round; stroke-linecap: butt}</style>
 </defs>
 <g id="figure_1">
  <g id="patch_1">
   <path d="M 0 619.249375 
L 1172.10125 619.249375 
L 1172.10125 0 
L 0 0 
z
" style="fill: #ffffff"/>
  </g>
  <g id="axes_1">
   <g id="patch_2">
    <path d="M 48.90125 579.7575 
L 1164.90125 579.7575 
L 1164.90125 25.3575 
L 48.90125 25.3575 
z
" style="fill: #ffffff"/>
   </g>
   <g id="FillBetweenPolyCollection_1">
    <path d="M 99.628523 579.7575 
L 99.628523 579.7575 
L 104.058852 579.7575 
L 108.489182 579.7575 
L 112.919511 579.7575 
L 117.349841 579.7575 
L 121.78017 579.7575 
L 126.2105 579.7575 
L 130.640829 579.7575 
L 135.071159 579.7575 
L 139.501488 579.7575 
L 143.931818 579.7575 
L 148.362147 579.7575 
L 152.792477 579.7575 
L 157.222806 579.7575 
L 161.653136 579.7575 
L 166.083465 579.7575 
L 170.513795 579.7575 
L 174.944124 579.7575 
L 179.374454 579.7575 
L 183.804783 579.7575 
L 188.235113 579.7575 
L 192.665442 579.7575 
L 197.095772 579.7575 
L 201.526101 579.7575 
L 205.956431 579.7575 
L 210.38676 579.7575 
L 214.81709 579.7575 
L 219.247419 579.7575 
L 223.677749 579.7575 
L 228.108078 579.7575 
L 232.538408 579.7575 
L 236.968737 579.7575 
L 241.399067 579.7575 
L 245.829396 579.7575 
L 250.259726 579.7575 
L 254.690055 579.7575 
L 259.120385 579.7575 
L 263.550714 579.7575 
L 267.981044 579.7575 
L 272.411373 579.7575 
L 276.841703 579.7575 
L 281.272032 579.7575 
L 285.702362 579.7575 
L 290.132691 579.7575 
L 294.563021 579.7575 
L 298.99335 579.7575 
L 303.42368 579.7575 
L 307.854009 579.7575 
L 312.284339 579.7575 
L 316.714668 579.7575 
L 321.144998 579.7575 
L 325.575327 579.7575 
L 330.005657 579.7575 
L 334.435986 579.7575 
L 338.866316 579.7575 
L 343.296645 579.7575 
L 347.726974 579.7575 
L 352.157304 579.7575 
L 356.587633 579.7575 
L 361.017963 579.7575 
L 365.448292 579.7575 
L 369.878622 579.7575 
L 374.308951 579.7575 
L 378.739281 579.7575 
L 383.16961 579.7575 
L 387.59994 579.7575 
L 392.030269 579.7575 
L 396.460599 579.7575 
L 400.890928 579.7575 
L 405.321258 579.7575 
L 409.751587 579.7575 
L 414.181917 579.7575 
L 418.612246 579.7575 
L 423.042576 579.7575 
L 427.472905 579.7575 
L 431.903235 579.7575 
L 436.333564 579.7575 
L 440.763894 579.7575 
L 445.194223 579.7575 
L 449.624553 579.7575 
L 454.054882 579.7575 
L 458.485212 579.7575 
L 462.915541 579.7575 
L 467.345871 579.7575 
L 471.7762 579.7575 
L 476.20653 579.7575 
L 480.636859 579.7575 
L 485.067189 579.7575 
L 489.497518 579.7575 
L 493.927848 579.7575 
L 498.358177 579.7575 
L 502.788507 579.7575 
L 507.218836 579.7575 
L 511.649166 579.7575 
L 516.079495 579.7575 
L 520.509825 579.7575 
L 524.940154 579.7575 
L 529.370484 579.7575 
L 533.800813 579.7575 
L 538.231143 579.7575 
L 542.661472 579.7575 
L 547.091802 579.7575 
L 551.522131 579.7575 
L 555.952461 579.7575 
L 560.38279 579.7575 
L 564.81312 579.7575 
L 569.243449 579.7575 
L 573.673779 579.7575 
L 578.104108 579.7575 
L 582.534438 579.7575 
L 586.964767 579.7575 
L 591.395097 579.7575 
L 595.825426 579.7575 
L 600.255756 579.7575 
L 604.686085 579.7575 
L 609.116415 579.7575 
L 613.546744 579.7575 
L 617.977074 579.7575 
L 622.407403 579.7575 
L 626.837733 579.7575 
L 631.268062 579.7575 
L 635.698392 579.7575 
L 640.128721 579.7575 
L 644.559051 579.7575 
L 648.98938 579.7575 
L 653.41971 579.7575 
L 657.850039 579.7575 
L 662.280369 579.7575 
L 666.710698 579.7575 
L 671.141028 579.7575 
L 675.571357 579.7575 
L 680.001687 579.7575 
L 684.432016 579.7575 
L 688.862346 579.7575 
L 693.292675 579.7575 
L 697.723005 579.7575 
L 702.153334 579.7575 
L 706.583664 579.7575 
L 711.013993 579.7575 
L 715.444323 579.7575 
L 719.874652 579.7575 
L 724.304982 579.7575 
L 728.735311 579.7575 
L 733.165641 579.7575 
L 737.59597 579.7575 
L 742.0263 579.7575 
L 746.456629 579.7575 
L 750.886959 579.7575 
L 755.317288 579.7575 
L 759.747618 579.7575 
L 764.177947 579.7575 
L 768.608277 579.7575 
L 773.038606 579.7575 
L 777.468936 579.7575 
L 781.899265 579.7575 
L 786.329595 579.7575 
L 790.759924 579.7575 
L 795.190254 579.7575 
L 799.620583 579.7575 
L 804.050913 579.7575 
L 808.481242 579.7575 
L 812.911572 579.7575 
L 817.341901 579.7575 
L 821.772231 579.7575 
L 826.20256 579.7575 
L 830.63289 579.7575 
L 835.063219 579.7575 
L 839.493549 579.7575 
L 843.923878 579.7575 
L 848.354208 579.7575 
L 852.784537 579.7575 
L 857.214867 579.7575 
L 861.645196 579.7575 
L 866.075526 579.7575 
L 870.505855 579.7575 
L 874.936184 579.7575 
L 879.366514 579.7575 
L 883.796843 579.7575 
L 888.227173 579.7575 
L 892.657502 579.7575 
L 897.087832 579.7575 
L 901.518161 579.7575 
L 905.948491 579.7575 
L 910.37882 579.7575 
L 914.80915 579.7575 
L 919.239479 579.7575 
L 923.669809 579.7575 
L 928.100138 579.7575 
L 932.530468 579.7575 
L 936.960797 579.7575 
L 941.391127 579.7575 
L 945.821456 579.7575 
L 950.251786 579.7575 
L 954.682115 579.7575 
L 959.112445 579.7575 
L 963.542774 579.7575 
L 967.973104 579.7575 
L 972.403433 579.7575 
L 976.833763 579.7575 
L 981.264092 579.7575 
L 985.694422 579.7575 
L 990.124751 579.7575 
L 994.555081 579.7575 
L 998.98541 579.7575 
L 1003.41574 579.7575 
L 1007.846069 579.7575 
L 1012.276399 579.7575 
L 1016.706728 579.7575 
L 1021.137058 579.7575 
L 1025.567387 579.7575 
L 1029.997717 579.7575 
L 1034.428046 579.7575 
L 1038.858376 579.7575 
L 1043.288705 579.7575 
L 1047.719035 579.7575 
L 1052.149364 579.7575 
L 1056.579694 579.7575 
L 1061.010023 579.7575 
L 1065.440353 579.7575 
L 1069.870682 579.7575 
L 1074.301012 579.7575 
L 1078.731341 579.7575 
L 1083.161671 579.7575 
L 1087.592 579.7575 
L 1092.02233 579.7575 
L 1096.452659 579.7575 
L 1100.882989 579.7575 
L 1105.313318 579.7575 
L 1109.743648 579.7575 
L 1114.173977 579.7575 
L 1114.173977 579.7575 
L 1114.173977 579.7575 
L 1109.743648 579.7575 
L 1105.313318 579.7575 
L 1100.882989 579.7575 
L 1096.452659 579.7575 
L 1092.02233 579.7575 
L 1087.592 579.7575 
L 1083.161671 579.7575 
L 1078.731341 579.7575 
L 1074.301012 579.7575 
L 1069.870682 579.7575 
L 1065.440353 579.7575 
L 1061.010023 579.7575 
L 1056.579694 579.7575 
L 1052.149364 579.7575 
L 1047.719035 579.7575 
L 1043.288705 579.7575 
L 1038.858376 579.7575 
L 1034.428046 579.7575 
L 1029.997717 579.7575 
L 1025.567387 579.7575 
L 1021.137058 579.7575 
L 1016.706728 579.7575 
L 1012.276399 579.7575 
L 1007.846069 579.7575 
L 1003.41574 579.7575 
L 998.98541 579.7575 
L 994.555081 579.7575 
L 990.124751 579.7575 
L 985.694422 579.7575 
L 981.264092 579.7575 
L 976.833763 579.7575 
L 972.403433 579.7575 
L 967.973104 579.7575 
L 963.542774 579.7575 
L 959.112445 579.7575 
L 954.682115 579.7575 
L 950.251786 579.7575 
L 945.821456 579.7575 
L 941.391127 579.7575 
L 936.960797 579.7575 
L 932.530468 579.7575 
L 928.100138 579.7575 
L 923.669809 579.7575 
L 919.239479 579.7575 
L 914.80915 579.7575 
L 910.37882 579.7575 
L 905.948491 579.7575 
L 901.518161 579.7575 
L 897.087832 579.7575 
L 892.657502 579.7575 
L 888.227173 579.7575 
L 883.796843 579.7575 
L 879.366514 579.7575 
L 874.936184 579.7575 
L 870.505855 579.7575 
L 866.075526 579.7575 
L 861.645196 579.7575 
L 857.214867 579.7575 
L 852.784537 579.7575 
L 848.354208 579.7575 
L 843.923878 579.7575 
L 839.493549 579.7575 
L 835.063219 579.7575 
L 830.63289 579.7575 
L 826.20256 579.7575 
L 821.772231 579.7575 
L 817.341901 576.012819 
L 812.911572 576.012819 
L 808.481242 576.012819 
L 804.050913 576.012819 
L 799.620583 576.012819 
L 795.190254 576.012819 
L 790.759924 576.012819 
L 786.329595 576.012819 
L 781.899265 576.012819 
L 777.468936 576.012819 
L 773.038606 576.012819 
L 768.608277 576.012819 
L 764.177947 576.012819 
L 759.747618 576.012819 
L 755.317288 572.268138 
L 750.886959 572.268138 
L 746.456629 572.268138 
L 742.0263 572.268138 
L 737.59597 572.268138 
L 733.165641 572.268138 
L 728.735311 572.268138 
L 724.304982 572.268138 
L 719.874652 572.268138 
L 715.444323 572.268138 
L 711.013993 568.523457 
L 706.583664 568.523457 
L 702.153334 564.778777 
L 697.723005 564.778777 
L 693.292675 568.523457 
L 688.862346 568.523457 
L 684.432016 568.523457 
L 680.001687 568.523457 
L 675.571357 564.778777 
L 671.141028 557.289415 
L 666.710698 557.289415 
L 662.280369 553.544734 
L 657.850039 553.544734 
L 653.41971 553.544734 
L 648.98938 542.310691 
L 644.559051 542.310691 
L 640.128721 531.076649 
L 635.698392 516.097926 
L 631.268062 512.353245 
L 626.837733 501.119202 
L 622.407403 474.906436 
L 617.977074 463.672394 
L 613.546744 478.651117 
L 609.116415 463.672394 
L 604.686085 452.438351 
L 600.255756 456.183032 
L 595.825426 456.183032 
L 591.395097 456.183032 
L 586.964767 441.204309 
L 582.534438 478.651117 
L 578.104108 467.417074 
L 573.673779 456.183032 
L 569.243449 444.948989 
L 564.81312 478.651117 
L 560.38279 497.374521 
L 555.952461 501.119202 
L 551.522131 489.88516 
L 547.091802 493.62984 
L 542.661472 508.608564 
L 538.231143 486.140479 
L 533.800813 459.927713 
L 529.370484 444.948989 
L 524.940154 459.927713 
L 520.509825 501.119202 
L 516.079495 489.88516 
L 511.649166 474.906436 
L 507.218836 471.161755 
L 502.788507 467.417074 
L 498.358177 471.161755 
L 493.927848 486.140479 
L 489.497518 497.374521 
L 485.067189 497.374521 
L 480.636859 508.608564 
L 476.20653 497.374521 
L 471.7762 493.62984 
L 467.345871 516.097926 
L 462.915541 516.097926 
L 458.485212 512.353245 
L 454.054882 516.097926 
L 449.624553 516.097926 
L 445.194223 512.353245 
L 440.763894 504.863883 
L 436.333564 508.608564 
L 431.903235 516.097926 
L 427.472905 516.097926 
L 423.042576 531.076649 
L 418.612246 519.842606 
L 414.181917 534.82133 
L 409.751587 534.82133 
L 405.321258 534.82133 
L 400.890928 531.076649 
L 396.460599 501.119202 
L 392.030269 467.417074 
L 387.59994 392.523457 
L 383.16961 362.566011 
L 378.739281 385.034096 
L 374.308951 403.7575 
L 369.878622 407.502181 
L 365.448292 403.7575 
L 361.017963 422.480904 
L 356.587633 448.69367 
L 352.157304 478.651117 
L 347.726974 486.140479 
L 343.296645 501.119202 
L 338.866316 512.353245 
L 334.435986 516.097926 
L 330.005657 512.353245 
L 325.575327 516.097926 
L 321.144998 516.097926 
L 316.714668 516.097926 
L 312.284339 538.566011 
L 307.854009 534.82133 
L 303.42368 546.055372 
L 298.99335 553.544734 
L 294.563021 557.289415 
L 290.132691 572.268138 
L 285.702362 572.268138 
L 281.272032 561.034096 
L 276.841703 576.012819 
L 272.411373 576.012819 
L 267.981044 576.012819 
L 263.550714 579.7575 
L 259.120385 579.7575 
L 254.690055 579.7575 
L 250.259726 579.7575 
L 245.829396 576.012819 
L 241.399067 576.012819 
L 236.968737 572.268138 
L 232.538408 576.012819 
L 228.108078 576.012819 
L 223.677749 579.7575 
L 219.247419 579.7575 
L 214.81709 579.7575 
L 210.38676 579.7575 
L 205.956431 579.7575 
L 201.526101 579.7575 
L 197.095772 579.7575 
L 192.665442 579.7575 
L 188.235113 579.7575 
L 183.804783 579.7575 
L 179.374454 579.7575 
L 174.944124 579.7575 
L 170.513795 579.7575 
L 166.083465 579.7575 
L 161.653136 579.7575 
L 157.222806 579.7575 
L 152.792477 579.7575 
L 148.362147 579.7575 
L 143.931818 579.7575 
L 139.501488 579.7575 
L 135.071159 579.7575 
L 130.640829 579.7575 
L 126.2105 579.7575 
L 121.78017 579.7575 
L 117.349841 579.7575 
L 112.919511 579.7575 
L 108.489182 579.7575 
L 104.058852 579.7575 
L 99.628523 579.7575 
z
" clip-path="url(#p66c7a3323d)" style="fill: #4b4b4b"/>
   </g>
   <g id="FillBetweenPolyCollection_2">
    <path d="M 99.628523 579.7575 
L 99.628523 579.7575 
L 104.058852 579.7575 
L 108.489182 579.7575 
L 112.919511 579.7575 
L 117.349841 579.7575 
L 121.78017 579.7575 
L 126.2105 579.7575 
L 130.640829 579.7575 
L 135.071159 579.7575 
L 139.501488 579.7575 
L 143.931818 579.7575 
L 148.362147 579.7575 
L 152.792477 579.7575 
L 157.222806 579.7575 
L 161.653136 579.7575 
L 166.083465 579.7575 
L 170.513795 579.7575 
L 174.944124 579.7575 
L 179.374454 579.7575 
L 183.804783 579.7575 
L 188.235113 579.7575 
L 192.665442 579.7575 
L 197.095772 579.7575 
L 201.526101 579.7575 
L 205.956431 579.7575 
L 210.38676 579.7575 
L 214.81709 579.7575 
L 219.247419 579.7575 
L 223.677749 579.7575 
L 228.108078 576.012819 
L 232.538408 576.012819 
L 236.968737 572.268138 
L 241.399067 576.012819 
L 245.829396 576.012819 
L 250.259726 579.7575 
L 254.690055 579.7575 
L 259.120385 579.7575 
L 263.550714 579.7575 
L 267.981044 576.012819 
L 272.411373 576.012819 
L 276.841703 576.012819 
L 281.272032 561.034096 
L 285.702362 572.268138 
L 290.132691 572.268138 
L 294.563021 557.289415 
L 298.99335 553.544734 
L 303.42368 546.055372 
L 307.854009 534.82133 
L 312.284339 538.566011 
L 316.714668 516.097926 
L 321.144998 516.097926 
L 325.575327 516.097926 
L 330.005657 512.353245 
L 334.435986 516.097926 
L 338.866316 512.353245 
L 343.296645 501.119202 
L 347.726974 486.140479 
L 352.157304 478.651117 
L 356.587633 448.69367 
L 361.017963 422.480904 
L 365.448292 403.7575 
L 369.878622 407.502181 
L 374.308951 403.7575 
L 378.739281 385.034096 
L 383.16961 362.566011 
L 387.59994 392.523457 
L 392.030269 467.417074 
L 396.460599 501.119202 
L 400.890928 531.076649 
L 405.321258 534.82133 
L 409.751587 534.82133 
L 414.181917 534.82133 
L 418.612246 519.842606 
L 423.042576 531.076649 
L 427.472905 516.097926 
L 431.903235 516.097926 
L 436.333564 508.608564 
L 440.763894 504.863883 
L 445.194223 512.353245 
L 449.624553 516.097926 
L 454.054882 516.097926 
L 458.485212 512.353245 
L 462.915541 516.097926 
L 467.345871 516.097926 
L 471.7762 493.62984 
L 476.20653 497.374521 
L 480.636859 508.608564 
L 485.067189 497.374521 
L 489.497518 497.374521 
L 493.927848 486.140479 
L 498.358177 471.161755 
L 502.788507 467.417074 
L 507.218836 471.161755 
L 511.649166 474.906436 
L 516.079495 489.88516 
L 520.509825 501.119202 
L 524.940154 459.927713 
L 529.370484 444.948989 
L 533.800813 459.927713 
L 538.231143 486.140479 
L 542.661472 508.608564 
L 547.091802 493.62984 
L 551.522131 489.88516 
L 555.952461 501.119202 
L 560.38279 497.374521 
L 564.81312 478.651117 
L 569.243449 444.948989 
L 573.673779 456.183032 
L 578.104108 467.417074 
L 582.534438 478.651117 
L 586.964767 441.204309 
L 591.395097 456.183032 
L 595.825426 456.183032 
L 600.255756 456.183032 
L 604.686085 452.438351 
L 609.116415 463.672394 
L 613.546744 478.651117 
L 617.977074 463.672394 
L 622.407403 474.906436 
L 626.837733 501.119202 
L 631.268062 512.353245 
L 635.698392 516.097926 
L 640.128721 531.076649 
L 644.559051 542.310691 
L 648.98938 542.310691 
L 653.41971 553.544734 
L 657.850039 553.544734 
L 662.280369 553.544734 
L 666.710698 557.289415 
L 671.141028 557.289415 
L 675.571357 564.778777 
L 680.001687 568.523457 
L 684.432016 568.523457 
L 688.862346 568.523457 
L 693.292675 568.523457 
L 697.723005 564.778777 
L 702.153334 564.778777 
L 706.583664 568.523457 
L 711.013993 568.523457 
L 715.444323 572.268138 
L 719.874652 572.268138 
L 724.304982 572.268138 
L 728.735311 572.268138 
L 733.165641 572.268138 
L 737.59597 572.268138 
L 742.0263 572.268138 
L 746.456629 572.268138 
L 750.886959 572.268138 
L 755.317288 572.268138 
L 759.747618 576.012819 
L 764.177947 576.012819 
L 768.608277 576.012819 
L 773.038606 576.012819 
L 777.468936 576.012819 
L 781.899265 576.012819 
L 786.329595 576.012819 
L 790.759924 576.012819 
L 795.190254 576.012819 
L 799.620583 576.012819 
L 804.050913 576.012819 
L 808.481242 576.012819 
L 812.911572 576.012819 
L 817.341901 576.012819 
L 821.772231 579.7575 
L 826.20256 579.7575 
L 830.63289 579.7575 
L 835.063219 579.7575 
L 839.493549 579.7575 
L 843.923878 579.7575 
L 848.354208 579.7575 
L 852.784537 579.7575 
L 857.214867 579.7575 
L 861.645196 579.7575 
L 866.075526 579.7575 
L 870.505855 579.7575 
L 874.936184 579.7575 
L 879.366514 579.7575 
L 883.796843 579.7575 
L 888.227173 579.7575 
L 892.657502 579.7575 
L 897.087832 579.7575 
L 901.518161 579.7575 
L 905.948491 579.7575 
L 910.37882 579.7575 
L 914.80915 579.7575 
L 919.239479 579.7575 
L 923.669809 579.7575 
L 928.100138 579.7575 
L 932.530468 579.7575 
L 936.960797 579.7575 
L 941.391127 579.7575 
L 945.821456 579.7575 
L 950.251786 579.7575 
L 954.682115 579.7575 
L 959.112445 579.7575 
L 963.542774 579.7575 
L 967.973104 579.7575 
L 972.403433 579.7575 
L 976.833763 579.7575 
L 981.264092 579.7575 
L 985.694422 579.7575 
L 990.124751 579.7575 
L 994.555081 579.7575 
L 998.98541 579.7575 
L 1003.41574 579.7575 
L 1007.846069 579.7575 
L 1012.276399 579.7575 
L 1016.706728 579.7575 
L 1021.137058 579.7575 
L 1025.567387 579.7575 
L 1029.997717 579.7575 
L 1034.428046 579.7575 
L 1038.858376 579.7575 
L 1043.288705 579.7575 
L 1047.719035 579.7575 
L 1052.149364 579.7575 
L 1056.579694 579.7575 
L 1061.010023 579.7575 
L 1065.440353 579.7575 
L 1069.870682 579.7575 
L 1074.301012 579.7575 
L 1078.731341 579.7575 
L 1083.161671 579.7575 
L 1087.592 579.7575 
L 1092.02233 579.7575 
L 1096.452659 579.7575 
L 1100.882989 579.7575 
L 1105.313318 579.7575 
L 1109.743648 579.7575 
L 1114.173977 579.7575 
L 1114.173977 579.7575 
L 1114.173977 579.7575 
L 1109.743648 579.7575 
L 1105.313318 579.7575 
L 1100.882989 579.7575 
L 1096.452659 579.7575 
L 1092.02233 579.7575 
L 1087.592 579.7575 
L 1083.161671 579.7575 
L 1078.731341 579.7575 
L 1074.301012 579.7575 
L 1069.870682 579.7575 
L 1065.440353 579.7575 
L 1061.010023 579.7575 
L 1056.579694 579.7575 
L 1052.149364 579.7575 
L 1047.719035 579.7575 
L 1043.288705 579.7575 
L 1038.858376 579.7575 
L 1034.428046 579.7575 
L 1029.997717 579.7575 
L 1025.567387 579.7575 
L 1021.137058 579.7575 
L 1016.706728 579.7575 
L 1012.276399 579.7575 
L 1007.846069 579.7575 
L 1003.41574 579.7575 
L 998.98541 579.7575 
L 994.555081 579.7575 
L 990.124751 579.7575 
L 985.694422 579.7575 
L 981.264092 579.7575 
L 976.833763 579.7575 
L 972.403433 579.7575 
L 967.973104 579.7575 
L 963.542774 579.7575 
L 959.112445 579.7575 
L 954.682115 579.7575 
L 950.251786 579.7575 
L 945.821456 579.7575 
L 941.391127 579.7575 
L 936.960797 579.7575 
L 932.530468 579.7575 
L 928.100138 579.7575 
L 923.669809 579.7575 
L 919.239479 579.7575 
L 914.80915 579.7575 
L 910.37882 579.7575 
L 905.948491 579.7575 
L 901.518161 579.7575 
L 897.087832 579.7575 
L 892.657502 579.7575 
L 888.227173 579.7575 
L 883.796843 579.7575 
L 879.366514 579.7575 
L 874.936184 579.7575 
L 870.505855 579.7575 
L 866.075526 579.7575 
L 861.645196 579.7575 
L 857.214867 579.7575 
L 852.784537 579.7575 
L 848.354208 579.7575 
L 843.923878 579.7575 
L 839.493549 579.7575 
L 835.063219 579.7575 
L 830.63289 579.7575 
L 826.20256 579.7575 
L 821.772231 579.7575 
L 817.341901 576.012819 
L 812.911572 576.012819 
L 808.481242 576.012819 
L 804.050913 576.012819 
L 799.620583 576.012819 
L 795.190254 576.012819 
L 790.759924 576.012819 
L 786.329595 576.012819 
L 781.899265 576.012819 
L 777.468936 576.012819 
L 773.038606 576.012819 
L 768.608277 576.012819 
L 764.177947 576.012819 
L 759.747618 576.012819 
L 755.317288 572.268138 
L 750.886959 572.268138 
L 746.456629 572.268138 
L 742.0263 572.268138 
L 737.59597 572.268138 
L 733.165641 572.268138 
L 728.735311 572.268138 
L 724.304982 572.268138 
L 719.874652 572.268138 
L 715.444323 572.268138 
L 711.013993 568.523457 
L 706.583664 568.523457 
L 702.153334 564.778777 
L 697.723005 564.778777 
L 693.292675 568.523457 
L 688.862346 568.523457 
L 684.432016 568.523457 
L 680.001687 568.523457 
L 675.571357 564.778777 
L 671.141028 557.289415 
L 666.710698 557.289415 
L 662.280369 553.544734 
L 657.850039 553.544734 
L 653.41971 553.544734 
L 648.98938 542.310691 
L 644.559051 542.310691 
L 640.128721 527.331968 
L 635.698392 512.353245 
L 631.268062 512.353245 
L 626.837733 501.119202 
L 622.407403 471.161755 
L 617.977074 459.927713 
L 613.546744 467.417074 
L 609.116415 448.69367 
L 604.686085 441.204309 
L 600.255756 433.714947 
L 595.825426 437.459628 
L 591.395097 433.714947 
L 586.964767 422.480904 
L 582.534438 456.183032 
L 578.104108 448.69367 
L 573.673779 441.204309 
L 569.243449 392.523457 
L 564.81312 441.204309 
L 560.38279 489.88516 
L 555.952461 497.374521 
L 551.522131 482.395798 
L 547.091802 486.140479 
L 542.661472 497.374521 
L 538.231143 474.906436 
L 533.800813 452.438351 
L 529.370484 437.459628 
L 524.940154 444.948989 
L 520.509825 463.672394 
L 516.079495 471.161755 
L 511.649166 471.161755 
L 507.218836 456.183032 
L 502.788507 456.183032 
L 498.358177 467.417074 
L 493.927848 474.906436 
L 489.497518 497.374521 
L 485.067189 493.62984 
L 480.636859 497.374521 
L 476.20653 478.651117 
L 471.7762 489.88516 
L 467.345871 497.374521 
L 462.915541 497.374521 
L 458.485212 501.119202 
L 454.054882 508.608564 
L 449.624553 501.119202 
L 445.194223 497.374521 
L 440.763894 489.88516 
L 436.333564 489.88516 
L 431.903235 512.353245 
L 427.472905 501.119202 
L 423.042576 516.097926 
L 418.612246 516.097926 
L 414.181917 531.076649 
L 409.751587 534.82133 
L 405.321258 531.076649 
L 400.890928 531.076649 
L 396.460599 501.119202 
L 392.030269 459.927713 
L 387.59994 388.778777 
L 383.16961 347.587287 
L 378.739281 355.076649 
L 374.308951 370.055372 
L 369.878622 400.012819 
L 365.448292 403.7575 
L 361.017963 411.246862 
L 356.587633 437.459628 
L 352.157304 471.161755 
L 347.726974 467.417074 
L 343.296645 493.62984 
L 338.866316 504.863883 
L 334.435986 512.353245 
L 330.005657 508.608564 
L 325.575327 516.097926 
L 321.144998 512.353245 
L 316.714668 512.353245 
L 312.284339 527.331968 
L 307.854009 534.82133 
L 303.42368 538.566011 
L 298.99335 549.800053 
L 294.563021 553.544734 
L 290.132691 568.523457 
L 285.702362 568.523457 
L 281.272032 561.034096 
L 276.841703 576.012819 
L 272.411373 576.012819 
L 267.981044 576.012819 
L 263.550714 572.268138 
L 259.120385 572.268138 
L 254.690055 579.7575 
L 250.259726 579.7575 
L 245.829396 576.012819 
L 241.399067 576.012819 
L 236.968737 572.268138 
L 232.538408 576.012819 
L 228.108078 572.268138 
L 223.677749 576.012819 
L 219.247419 576.012819 
L 214.81709 576.012819 
L 210.38676 576.012819 
L 205.956431 576.012819 
L 201.526101 576.012819 
L 197.095772 576.012819 
L 192.665442 576.012819 
L 188.235113 576.012819 
L 183.804783 576.012819 
L 179.374454 576.012819 
L 174.944124 576.012819 
L 170.513795 576.012819 
L 166.083465 576.012819 
L 161.653136 579.7575 
L 157.222806 579.7575 
L 152.792477 579.7575 
L 148.362147 579.7575 
L 143.931818 579.7575 
L 139.501488 579.7575 
L 135.071159 579.7575 
L 130.640829 579.7575 
L 126.2105 579.7575 
L 121.78017 579.7575 
L 117.349841 579.7575 
L 112.919511 579.7575 
L 108.489182 579.7575 
L 104.058852 579.7575 
L 99.628523 579.7575 
z
" clip-path="url(#p66c7a3323d)" style="fill: #7a7a7a"/>
   </g>
   <g id="FillBetweenPolyCollection_3">
    <path d="M 99.628523 576.012819 
L 99.628523 579.7575 
L 104.058852 579.7575 
L 108.489182 579.7575 
L 112.919511 579.7575 
L 117.349841 579.7575 
L 121.78017 579.7575 
L 126.2105 579.7575 
L 130.640829 579.7575 
L 135.071159 579.7575 
L 139.501488 579.7575 
L 143.931818 579.7575 
L 148.362147 579.7575 
L 152.792477 579.7575 
L 157.222806 579.7575 
L 161.653136 579.7575 
L 166.083465 576.012819 
L 170.513795 576.012819 
L 174.944124 576.012819 
L 179.374454 576.012819 
L 183.804783 576.012819 
L 188.235113 576.012819 
L 192.665442 576.012819 
L 197.095772 576.012819 
L 201.526101 576.012819 
L 205.956431 576.012819 
L 210.38676 576.012819 
L 214.81709 576.012819 
L 219.247419 576.012819 
L 223.677749 576.012819 
L 228.108078 572.268138 
L 232.538408 576.012819 
L 236.968737 572.268138 
L 241.399067 576.012819 
L 245.829396 576.012819 
L 250.259726 579.7575 
L 254.690055 579.7575 
L 259.120385 572.268138 
L 263.550714 572.268138 
L 267.981044 576.012819 
L 272.411373 576.012819 
L 276.841703 576.012819 
L 281.272032 561.034096 
L 285.702362 568.523457 
L 290.132691 568.523457 
L 294.563021 553.544734 
L 298.99335 549.800053 
L 303.42368 538.566011 
L 307.854009 534.82133 
L 312.284339 527.331968 
L 316.714668 512.353245 
L 321.144998 512.353245 
L 325.575327 516.097926 
L 330.005657 508.608564 
L 334.435986 512.353245 
L 338.866316 504.863883 
L 343.296645 493.62984 
L 347.726974 467.417074 
L 352.157304 471.161755 
L 356.587633 437.459628 
L 361.017963 411.246862 
L 365.448292 403.7575 
L 369.878622 400.012819 
L 374.308951 370.055372 
L 378.739281 355.076649 
L 383.16961 347.587287 
L 387.59994 388.778777 
L 392.030269 459.927713 
L 396.460599 501.119202 
L 400.890928 531.076649 
L 405.321258 531.076649 
L 409.751587 534.82133 
L 414.181917 531.076649 
L 418.612246 516.097926 
L 423.042576 516.097926 
L 427.472905 501.119202 
L 431.903235 512.353245 
L 436.333564 489.88516 
L 440.763894 489.88516 
L 445.194223 497.374521 
L 449.624553 501.119202 
L 454.054882 508.608564 
L 458.485212 501.119202 
L 462.915541 497.374521 
L 467.345871 497.374521 
L 471.7762 489.88516 
L 476.20653 478.651117 
L 480.636859 497.374521 
L 485.067189 493.62984 
L 489.497518 497.374521 
L 493.927848 474.906436 
L 498.358177 467.417074 
L 502.788507 456.183032 
L 507.218836 456.183032 
L 511.649166 471.161755 
L 516.079495 471.161755 
L 520.509825 463.672394 
L 524.940154 444.948989 
L 529.370484 437.459628 
L 533.800813 452.438351 
L 538.231143 474.906436 
L 542.661472 497.374521 
L 547.091802 486.140479 
L 551.522131 482.395798 
L 555.952461 497.374521 
L 560.38279 489.88516 
L 564.81312 441.204309 
L 569.243449 392.523457 
L 573.673779 441.204309 
L 578.104108 448.69367 
L 582.534438 456.183032 
L 586.964767 422.480904 
L 591.395097 433.714947 
L 595.825426 437.459628 
L 600.255756 433.714947 
L 604.686085 441.204309 
L 609.116415 448.69367 
L 613.546744 467.417074 
L 617.977074 459.927713 
L 622.407403 471.161755 
L 626.837733 501.119202 
L 631.268062 512.353245 
L 635.698392 512.353245 
L 640.128721 527.331968 
L 644.559051 542.310691 
L 648.98938 542.310691 
L 653.41971 553.544734 
L 657.850039 553.544734 
L 662.280369 553.544734 
L 666.710698 557.289415 
L 671.141028 557.289415 
L 675.571357 564.778777 
L 680.001687 568.523457 
L 684.432016 568.523457 
L 688.862346 568.523457 
L 693.292675 568.523457 
L 697.723005 564.778777 
L 702.153334 564.778777 
L 706.583664 568.523457 
L 711.013993 568.523457 
L 715.444323 572.268138 
L 719.874652 572.268138 
L 724.304982 572.268138 
L 728.735311 572.268138 
L 733.165641 572.268138 
L 737.59597 572.268138 
L 742.0263 572.268138 
L 746.456629 572.268138 
L 750.886959 572.268138 
L 755.317288 572.268138 
L 759.747618 576.012819 
L 764.177947 576.012819 
L 768.608277 576.012819 
L 773.038606 576.012819 
L 777.468936 576.012819 
L 781.899265 576.012819 
L 786.329595 576.012819 
L 790.759924 576.012819 
L 795.190254 576.012819 
L 799.620583 576.012819 
L 804.050913 576.012819 
L 808.481242 576.012819 
L 812.911572 576.012819 
L 817.341901 576.012819 
L 821.772231 579.7575 
L 826.20256 579.7575 
L 830.63289 579.7575 
L 835.063219 579.7575 
L 839.493549 579.7575 
L 843.923878 579.7575 
L 848.354208 579.7575 
L 852.784537 579.7575 
L 857.214867 579.7575 
L 861.645196 579.7575 
L 866.075526 579.7575 
L 870.505855 579.7575 
L 874.936184 579.7575 
L 879.366514 579.7575 
L 883.796843 579.7575 
L 888.227173 579.7575 
L 892.657502 579.7575 
L 897.087832 579.7575 
L 901.518161 579.7575 
L 905.948491 579.7575 
L 910.37882 579.7575 
L 914.80915 579.7575 
L 919.239479 579.7575 
L 923.669809 579.7575 
L 928.100138 579.7575 
L 932.530468 579.7575 
L 936.960797 579.7575 
L 941.391127 579.7575 
L 945.821456 579.7575 
L 950.251786 579.7575 
L 954.682115 579.7575 
L 959.112445 579.7575 
L 963.542774 579.7575 
L 967.973104 579.7575 
L 972.403433 579.7575 
L 976.833763 579.7575 
L 981.264092 579.7575 
L 985.694422 579.7575 
L 990.124751 579.7575 
L 994.555081 579.7575 
L 998.98541 579.7575 
L 1003.41574 579.7575 
L 1007.846069 579.7575 
L 1012.276399 579.7575 
L 1016.706728 579.7575 
L 1021.137058 579.7575 
L 1025.567387 579.7575 
L 1029.997717 579.7575 
L 1034.428046 579.7575 
L 1038.858376 579.7575 
L 1043.288705 579.7575 
L 1047.719035 579.7575 
L 1052.149364 579.7575 
L 1056.579694 579.7575 
L 1061.010023 579.7575 
L 1065.440353 579.7575 
L 1069.870682 579.7575 
L 1074.301012 579.7575 
L 1078.731341 579.7575 
L 1083.161671 579.7575 
L 1087.592 579.7575 
L 1092.02233 579.7575 
L 1096.452659 579.7575 
L 1100.882989 579.7575 
L 1105.313318 579.7575 
L 1109.743648 579.7575 
L 1114.173977 579.7575 
L 1114.173977 579.7575 
L 1114.173977 579.7575 
L 1109.743648 579.7575 
L 1105.313318 579.7575 
L 1100.882989 579.7575 
L 1096.452659 579.7575 
L 1092.02233 579.7575 
L 1087.592 579.7575 
L 1083.161671 579.7575 
L 1078.731341 579.7575 
L 1074.301012 579.7575 
L 1069.870682 579.7575 
L 1065.440353 579.7575 
L 1061.010023 579.7575 
L 1056.579694 579.7575 
L 1052.149364 579.7575 
L 1047.719035 579.7575 
L 1043.288705 579.7575 
L 1038.858376 579.7575 
L 1034.428046 579.7575 
L 1029.997717 579.7575 
L 1025.567387 579.7575 
L 1021.137058 579.7575 
L 1016.706728 576.012819 
L 1012.276399 576.012819 
L 1007.846069 576.012819 
L 1003.41574 576.012819 
L 998.98541 576.012819 
L 994.555081 576.012819 
L 990.124751 576.012819 
L 985.694422 576.012819 
L 981.264092 576.012819 
L 976.833763 576.012819 
L 972.403433 576.012819 
L 967.973104 576.012819 
L 963.542774 576.012819 
L 959.112445 576.012819 
L 954.682115 576.012819 
L 950.251786 576.012819 
L 945.821456 576.012819 
L 941.391127 576.012819 
L 936.960797 576.012819 
L 932.530468 576.012819 
L 928.100138 576.012819 
L 923.669809 576.012819 
L 919.239479 576.012819 
L 914.80915 576.012819 
L 910.37882 576.012819 
L 905.948491 576.012819 
L 901.518161 576.012819 
L 897.087832 576.012819 
L 892.657502 576.012819 
L 888.227173 576.012819 
L 883.796843 576.012819 
L 879.366514 576.012819 
L 874.936184 576.012819 
L 870.505855 576.012819 
L 866.075526 576.012819 
L 861.645196 579.7575 
L 857.214867 579.7575 
L 852.784537 579.7575 
L 848.354208 579.7575 
L 843.923878 579.7575 
L 839.493549 579.7575 
L 835.063219 579.7575 
L 830.63289 579.7575 
L 826.20256 579.7575 
L 821.772231 579.7575 
L 817.341901 576.012819 
L 812.911572 576.012819 
L 808.481242 576.012819 
L 804.050913 576.012819 
L 799.620583 576.012819 
L 795.190254 576.012819 
L 790.759924 576.012819 
L 786.329595 576.012819 
L 781.899265 576.012819 
L 777.468936 576.012819 
L 773.038606 572.268138 
L 768.608277 572.268138 
L 764.177947 572.268138 
L 759.747618 568.523457 
L 755.317288 564.778777 
L 750.886959 564.778777 
L 746.456629 564.778777 
L 742.0263 564.778777 
L 737.59597 561.034096 
L 733.165641 561.034096 
L 728.735311 561.034096 
L 724.304982 561.034096 
L 719.874652 561.034096 
L 715.444323 561.034096 
L 711.013993 553.544734 
L 706.583664 557.289415 
L 702.153334 549.800053 
L 697.723005 542.310691 
L 693.292675 546.055372 
L 688.862346 531.076649 
L 684.432016 531.076649 
L 680.001687 523.587287 
L 675.571357 523.587287 
L 671.141028 512.353245 
L 666.710698 519.842606 
L 662.280369 516.097926 
L 657.850039 512.353245 
L 653.41971 493.62984 
L 648.98938 467.417074 
L 644.559051 467.417074 
L 640.128721 459.927713 
L 635.698392 456.183032 
L 631.268062 471.161755 
L 626.837733 459.927713 
L 622.407403 422.480904 
L 617.977074 400.012819 
L 613.546744 396.268138 
L 609.116415 366.310691 
L 604.686085 332.608564 
L 600.255756 302.651117 
L 595.825426 283.927713 
L 591.395097 272.69367 
L 586.964767 261.459628 
L 582.534438 291.417074 
L 578.104108 295.161755 
L 573.673779 317.62984 
L 569.243449 283.927713 
L 564.81312 373.800053 
L 560.38279 422.480904 
L 555.952461 426.225585 
L 551.522131 411.246862 
L 547.091802 418.736223 
L 542.661472 444.948989 
L 538.231143 411.246862 
L 533.800813 392.523457 
L 529.370484 377.544734 
L 524.940154 392.523457 
L 520.509825 411.246862 
L 516.079495 411.246862 
L 511.649166 407.502181 
L 507.218836 407.502181 
L 502.788507 414.991543 
L 498.358177 418.736223 
L 493.927848 414.991543 
L 489.497518 437.459628 
L 485.067189 429.970266 
L 480.636859 414.991543 
L 476.20653 400.012819 
L 471.7762 407.502181 
L 467.345871 407.502181 
L 462.915541 403.7575 
L 458.485212 407.502181 
L 454.054882 418.736223 
L 449.624553 411.246862 
L 445.194223 411.246862 
L 440.763894 403.7575 
L 436.333564 396.268138 
L 431.903235 400.012819 
L 427.472905 377.544734 
L 423.042576 377.544734 
L 418.612246 373.800053 
L 414.181917 377.544734 
L 409.751587 381.289415 
L 405.321258 373.800053 
L 400.890928 381.289415 
L 396.460599 340.097926 
L 392.030269 332.608564 
L 387.59994 317.62984 
L 383.16961 283.927713 
L 378.739281 298.906436 
L 374.308951 336.353245 
L 369.878622 373.800053 
L 365.448292 377.544734 
L 361.017963 392.523457 
L 356.587633 411.246862 
L 352.157304 448.69367 
L 347.726974 456.183032 
L 343.296645 482.395798 
L 338.866316 493.62984 
L 334.435986 501.119202 
L 330.005657 501.119202 
L 325.575327 504.863883 
L 321.144998 501.119202 
L 316.714668 504.863883 
L 312.284339 512.353245 
L 307.854009 519.842606 
L 303.42368 531.076649 
L 298.99335 542.310691 
L 294.563021 546.055372 
L 290.132691 561.034096 
L 285.702362 564.778777 
L 281.272032 557.289415 
L 276.841703 561.034096 
L 272.411373 561.034096 
L 267.981044 561.034096 
L 263.550714 561.034096 
L 259.120385 568.523457 
L 254.690055 576.012819 
L 250.259726 576.012819 
L 245.829396 568.523457 
L 241.399067 572.268138 
L 236.968737 568.523457 
L 232.538408 572.268138 
L 228.108078 568.523457 
L 223.677749 572.268138 
L 219.247419 572.268138 
L 214.81709 572.268138 
L 210.38676 572.268138 
L 205.956431 572.268138 
L 201.526101 572.268138 
L 197.095772 572.268138 
L 192.665442 568.523457 
L 188.235113 568.523457 
L 183.804783 568.523457 
L 179.374454 568.523457 
L 174.944124 568.523457 
L 170.513795 568.523457 
L 166.083465 568.523457 
L 161.653136 572.268138 
L 157.222806 576.012819 
L 152.792477 576.012819 
L 148.362147 576.012819 
L 143.931818 576.012819 
L 139.501488 576.012819 
L 135.071159 576.012819 
L 130.640829 576.012819 
L 126.2105 576.012819 
L 121.78017 576.012819 
L 117.349841 576.012819 
L 112.919511 576.012819 
L 108.489182 576.012819 
L 104.058852 576.012819 
L 99.628523 576.012819 
z
" clip-path="url(#p66c7a3323d)" style="fill: #e07b39"/>
   </g>
   <g id="FillBetweenPolyCollection_4">
    <path d="M 99.628523 576.012819 
L 99.628523 576.012819 
L 104.058852 576.012819 
L 108.489182 576.012819 
L 112.919511 576.012819 
L 117.349841 576.012819 
L 121.78017 576.012819 
L 126.2105 576.012819 
L 130.640829 576.012819 
L 135.071159 576.012819 
L 139.501488 576.012819 
L 143.931818 576.012819 
L 148.362147 576.012819 
L 152.792477 576.012819 
L 157.222806 576.012819 
L 161.653136 572.268138 
L 166.083465 568.523457 
L 170.513795 568.523457 
L 174.944124 568.523457 
L 179.374454 568.523457 
L 183.804783 568.523457 
L 188.235113 568.523457 
L 192.665442 568.523457 
L 197.095772 572.268138 
L 201.526101 572.268138 
L 205.956431 572.268138 
L 210.38676 572.268138 
L 214.81709 572.268138 
L 219.247419 572.268138 
L 223.677749 572.268138 
L 228.108078 568.523457 
L 232.538408 572.268138 
L 236.968737 568.523457 
L 241.399067 572.268138 
L 245.829396 568.523457 
L 250.259726 576.012819 
L 254.690055 576.012819 
L 259.120385 568.523457 
L 263.550714 561.034096 
L 267.981044 561.034096 
L 272.411373 561.034096 
L 276.841703 561.034096 
L 281.272032 557.289415 
L 285.702362 564.778777 
L 290.132691 561.034096 
L 294.563021 546.055372 
L 298.99335 542.310691 
L 303.42368 531.076649 
L 307.854009 519.842606 
L 312.284339 512.353245 
L 316.714668 504.863883 
L 321.144998 501.119202 
L 325.575327 504.863883 
L 330.005657 501.119202 
L 334.435986 501.119202 
L 338.866316 493.62984 
L 343.296645 482.395798 
L 347.726974 456.183032 
L 352.157304 448.69367 
L 356.587633 411.246862 
L 361.017963 392.523457 
L 365.448292 377.544734 
L 369.878622 373.800053 
L 374.308951 336.353245 
L 378.739281 298.906436 
L 383.16961 283.927713 
L 387.59994 317.62984 
L 392.030269 332.608564 
L 396.460599 340.097926 
L 400.890928 381.289415 
L 405.321258 373.800053 
L 409.751587 381.289415 
L 414.181917 377.544734 
L 418.612246 373.800053 
L 423.042576 377.544734 
L 427.472905 377.544734 
L 431.903235 400.012819 
L 436.333564 396.268138 
L 440.763894 403.7575 
L 445.194223 411.246862 
L 449.624553 411.246862 
L 454.054882 418.736223 
L 458.485212 407.502181 
L 462.915541 403.7575 
L 467.345871 407.502181 
L 471.7762 407.502181 
L 476.20653 400.012819 
L 480.636859 414.991543 
L 485.067189 429.970266 
L 489.497518 437.459628 
L 493.927848 414.991543 
L 498.358177 418.736223 
L 502.788507 414.991543 
L 507.218836 407.502181 
L 511.649166 407.502181 
L 516.079495 411.246862 
L 520.509825 411.246862 
L 524.940154 392.523457 
L 529.370484 377.544734 
L 533.800813 392.523457 
L 538.231143 411.246862 
L 542.661472 444.948989 
L 547.091802 418.736223 
L 551.522131 411.246862 
L 555.952461 426.225585 
L 560.38279 422.480904 
L 564.81312 373.800053 
L 569.243449 283.927713 
L 573.673779 317.62984 
L 578.104108 295.161755 
L 582.534438 291.417074 
L 586.964767 261.459628 
L 591.395097 272.69367 
L 595.825426 283.927713 
L 600.255756 302.651117 
L 604.686085 332.608564 
L 609.116415 366.310691 
L 613.546744 396.268138 
L 617.977074 400.012819 
L 622.407403 422.480904 
L 626.837733 459.927713 
L 631.268062 471.161755 
L 635.698392 456.183032 
L 640.128721 459.927713 
L 644.559051 467.417074 
L 648.98938 467.417074 
L 653.41971 493.62984 
L 657.850039 512.353245 
L 662.280369 516.097926 
L 666.710698 519.842606 
L 671.141028 512.353245 
L 675.571357 523.587287 
L 680.001687 523.587287 
L 684.432016 531.076649 
L 688.862346 531.076649 
L 693.292675 546.055372 
L 697.723005 542.310691 
L 702.153334 549.800053 
L 706.583664 557.289415 
L 711.013993 553.544734 
L 715.444323 561.034096 
L 719.874652 561.034096 
L 724.304982 561.034096 
L 728.735311 561.034096 
L 733.165641 561.034096 
L 737.59597 561.034096 
L 742.0263 564.778777 
L 746.456629 564.778777 
L 750.886959 564.778777 
L 755.317288 564.778777 
L 759.747618 568.523457 
L 764.177947 572.268138 
L 768.608277 572.268138 
L 773.038606 572.268138 
L 777.468936 576.012819 
L 781.899265 576.012819 
L 786.329595 576.012819 
L 790.759924 576.012819 
L 795.190254 576.012819 
L 799.620583 576.012819 
L 804.050913 576.012819 
L 808.481242 576.012819 
L 812.911572 576.012819 
L 817.341901 576.012819 
L 821.772231 579.7575 
L 826.20256 579.7575 
L 830.63289 579.7575 
L 835.063219 579.7575 
L 839.493549 579.7575 
L 843.923878 579.7575 
L 848.354208 579.7575 
L 852.784537 579.7575 
L 857.214867 579.7575 
L 861.645196 579.7575 
L 866.075526 576.012819 
L 870.505855 576.012819 
L 874.936184 576.012819 
L 879.366514 576.012819 
L 883.796843 576.012819 
L 888.227173 576.012819 
L 892.657502 576.012819 
L 897.087832 576.012819 
L 901.518161 576.012819 
L 905.948491 576.012819 
L 910.37882 576.012819 
L 914.80915 576.012819 
L 919.239479 576.012819 
L 923.669809 576.012819 
L 928.100138 576.012819 
L 932.530468 576.012819 
L 936.960797 576.012819 
L 941.391127 576.012819 
L 945.821456 576.012819 
L 950.251786 576.012819 
L 954.682115 576.012819 
L 959.112445 576.012819 
L 963.542774 576.012819 
L 967.973104 576.012819 
L 972.403433 576.012819 
L 976.833763 576.012819 
L 981.264092 576.012819 
L 985.694422 576.012819 
L 990.124751 576.012819 
L 994.555081 576.012819 
L 998.98541 576.012819 
L 1003.41574 576.012819 
L 1007.846069 576.012819 
L 1012.276399 576.012819 
L 1016.706728 576.012819 
L 1021.137058 579.7575 
L 1025.567387 579.7575 
L 1029.997717 579.7575 
L 1034.428046 579.7575 
L 1038.858376 579.7575 
L 1043.288705 579.7575 
L 1047.719035 579.7575 
L 1052.149364 579.7575 
L 1056.579694 579.7575 
L 1061.010023 579.7575 
L 1065.440353 579.7575 
L 1069.870682 579.7575 
L 1074.301012 579.7575 
L 1078.731341 579.7575 
L 1083.161671 579.7575 
L 1087.592 579.7575 
L 1092.02233 579.7575 
L 1096.452659 579.7575 
L 1100.882989 579.7575 
L 1105.313318 579.7575 
L 1109.743648 579.7575 
L 1114.173977 579.7575 
L 1114.173977 579.7575 
L 1114.173977 579.7575 
L 1109.743648 579.7575 
L 1105.313318 579.7575 
L 1100.882989 579.7575 
L 1096.452659 579.7575 
L 1092.02233 579.7575 
L 1087.592 579.7575 
L 1083.161671 579.7575 
L 1078.731341 579.7575 
L 1074.301012 579.7575 
L 1069.870682 579.7575 
L 1065.440353 579.7575 
L 1061.010023 579.7575 
L 1056.579694 579.7575 
L 1052.149364 579.7575 
L 1047.719035 579.7575 
L 1043.288705 579.7575 
L 1038.858376 579.7575 
L 1034.428046 579.7575 
L 1029.997717 579.7575 
L 1025.567387 579.7575 
L 1021.137058 579.7575 
L 1016.706728 576.012819 
L 1012.276399 576.012819 
L 1007.846069 576.012819 
L 1003.41574 576.012819 
L 998.98541 576.012819 
L 994.555081 576.012819 
L 990.124751 576.012819 
L 985.694422 576.012819 
L 981.264092 576.012819 
L 976.833763 576.012819 
L 972.403433 576.012819 
L 967.973104 576.012819 
L 963.542774 576.012819 
L 959.112445 576.012819 
L 954.682115 576.012819 
L 950.251786 576.012819 
L 945.821456 576.012819 
L 941.391127 576.012819 
L 936.960797 576.012819 
L 932.530468 576.012819 
L 928.100138 576.012819 
L 923.669809 576.012819 
L 919.239479 576.012819 
L 914.80915 576.012819 
L 910.37882 576.012819 
L 905.948491 576.012819 
L 901.518161 576.012819 
L 897.087832 576.012819 
L 892.657502 576.012819 
L 888.227173 576.012819 
L 883.796843 576.012819 
L 879.366514 576.012819 
L 874.936184 576.012819 
L 870.505855 576.012819 
L 866.075526 576.012819 
L 861.645196 579.7575 
L 857.214867 579.7575 
L 852.784537 579.7575 
L 848.354208 579.7575 
L 843.923878 579.7575 
L 839.493549 579.7575 
L 835.063219 579.7575 
L 830.63289 579.7575 
L 826.20256 579.7575 
L 821.772231 579.7575 
L 817.341901 576.012819 
L 812.911572 576.012819 
L 808.481242 576.012819 
L 804.050913 576.012819 
L 799.620583 576.012819 
L 795.190254 576.012819 
L 790.759924 576.012819 
L 786.329595 576.012819 
L 781.899265 576.012819 
L 777.468936 576.012819 
L 773.038606 572.268138 
L 768.608277 572.268138 
L 764.177947 572.268138 
L 759.747618 568.523457 
L 755.317288 564.778777 
L 750.886959 564.778777 
L 746.456629 564.778777 
L 742.0263 564.778777 
L 737.59597 561.034096 
L 733.165641 561.034096 
L 728.735311 561.034096 
L 724.304982 561.034096 
L 719.874652 561.034096 
L 715.444323 561.034096 
L 711.013993 553.544734 
L 706.583664 557.289415 
L 702.153334 549.800053 
L 697.723005 542.310691 
L 693.292675 546.055372 
L 688.862346 531.076649 
L 684.432016 531.076649 
L 680.001687 523.587287 
L 675.571357 523.587287 
L 671.141028 512.353245 
L 666.710698 519.842606 
L 662.280369 512.353245 
L 657.850039 508.608564 
L 653.41971 489.88516 
L 648.98938 463.672394 
L 644.559051 463.672394 
L 640.128721 456.183032 
L 635.698392 456.183032 
L 631.268062 467.417074 
L 626.837733 456.183032 
L 622.407403 418.736223 
L 617.977074 400.012819 
L 613.546744 396.268138 
L 609.116415 366.310691 
L 604.686085 332.608564 
L 600.255756 295.161755 
L 595.825426 276.438351 
L 591.395097 261.459628 
L 586.964767 250.225585 
L 582.534438 280.183032 
L 578.104108 283.927713 
L 573.673779 306.395798 
L 569.243449 272.69367 
L 564.81312 355.076649 
L 560.38279 407.502181 
L 555.952461 414.991543 
L 551.522131 400.012819 
L 547.091802 407.502181 
L 542.661472 414.991543 
L 538.231143 403.7575 
L 533.800813 381.289415 
L 529.370484 373.800053 
L 524.940154 385.034096 
L 520.509825 400.012819 
L 516.079495 407.502181 
L 511.649166 392.523457 
L 507.218836 388.778777 
L 502.788507 400.012819 
L 498.358177 400.012819 
L 493.927848 400.012819 
L 489.497518 418.736223 
L 485.067189 414.991543 
L 480.636859 407.502181 
L 476.20653 396.268138 
L 471.7762 400.012819 
L 467.345871 403.7575 
L 462.915541 400.012819 
L 458.485212 403.7575 
L 454.054882 411.246862 
L 449.624553 403.7575 
L 445.194223 403.7575 
L 440.763894 396.268138 
L 436.333564 388.778777 
L 431.903235 392.523457 
L 427.472905 373.800053 
L 423.042576 370.055372 
L 418.612246 366.310691 
L 414.181917 366.310691 
L 409.751587 366.310691 
L 405.321258 358.82133 
L 400.890928 362.566011 
L 396.460599 332.608564 
L 392.030269 310.140479 
L 387.59994 298.906436 
L 383.16961 276.438351 
L 378.739281 291.417074 
L 374.308951 325.119202 
L 369.878622 366.310691 
L 365.448292 373.800053 
L 361.017963 388.778777 
L 356.587633 403.7575 
L 352.157304 437.459628 
L 347.726974 452.438351 
L 343.296645 478.651117 
L 338.866316 489.88516 
L 334.435986 497.374521 
L 330.005657 493.62984 
L 325.575327 493.62984 
L 321.144998 493.62984 
L 316.714668 501.119202 
L 312.284339 504.863883 
L 307.854009 516.097926 
L 303.42368 531.076649 
L 298.99335 538.566011 
L 294.563021 542.310691 
L 290.132691 557.289415 
L 285.702362 564.778777 
L 281.272032 557.289415 
L 276.841703 557.289415 
L 272.411373 557.289415 
L 267.981044 557.289415 
L 263.550714 561.034096 
L 259.120385 568.523457 
L 254.690055 576.012819 
L 250.259726 576.012819 
L 245.829396 568.523457 
L 241.399067 572.268138 
L 236.968737 568.523457 
L 232.538408 568.523457 
L 228.108078 568.523457 
L 223.677749 572.268138 
L 219.247419 572.268138 
L 214.81709 572.268138 
L 210.38676 572.268138 
L 205.956431 572.268138 
L 201.526101 572.268138 
L 197.095772 572.268138 
L 192.665442 568.523457 
L 188.235113 568.523457 
L 183.804783 568.523457 
L 179.374454 568.523457 
L 174.944124 568.523457 
L 170.513795 568.523457 
L 166.083465 568.523457 
L 161.653136 572.268138 
L 157.222806 576.012819 
L 152.792477 576.012819 
L 148.362147 576.012819 
L 143.931818 576.012819 
L 139.501488 576.012819 
L 135.071159 576.012819 
L 130.640829 576.012819 
L 126.2105 576.012819 
L 121.78017 576.012819 
L 117.349841 576.012819 
L 112.919511 576.012819 
L 108.489182 576.012819 
L 104.058852 576.012819 
L 99.628523 576.012819 
z
" clip-path="url(#p66c7a3323d)" style="fill: #b3b3b3"/>
   </g>
   <g id="FillBetweenPolyCollection_5">
    <path d="M 99.628523 576.012819 
L 99.628523 576.012819 
L 104.058852 576.012819 
L 108.489182 576.012819 
L 112.919511 576.012819 
L 117.349841 576.012819 
L 121.78017 576.012819 
L 126.2105 576.012819 
L 130.640829 576.012819 
L 135.071159 576.012819 
L 139.501488 576.012819 
L 143.931818 576.012819 
L 148.362147 576.012819 
L 152.792477 576.012819 
L 157.222806 576.012819 
L 161.653136 572.268138 
L 166.083465 568.523457 
L 170.513795 568.523457 
L 174.944124 568.523457 
L 179.374454 568.523457 
L 183.804783 568.523457 
L 188.235113 568.523457 
L 192.665442 568.523457 
L 197.095772 572.268138 
L 201.526101 572.268138 
L 205.956431 572.268138 
L 210.38676 572.268138 
L 214.81709 572.268138 
L 219.247419 572.268138 
L 223.677749 572.268138 
L 228.108078 568.523457 
L 232.538408 568.523457 
L 236.968737 568.523457 
L 241.399067 572.268138 
L 245.829396 568.523457 
L 250.259726 576.012819 
L 254.690055 576.012819 
L 259.120385 568.523457 
L 263.550714 561.034096 
L 267.981044 557.289415 
L 272.411373 557.289415 
L 276.841703 557.289415 
L 281.272032 557.289415 
L 285.702362 564.778777 
L 290.132691 557.289415 
L 294.563021 542.310691 
L 298.99335 538.566011 
L 303.42368 531.076649 
L 307.854009 516.097926 
L 312.284339 504.863883 
L 316.714668 501.119202 
L 321.144998 493.62984 
L 325.575327 493.62984 
L 330.005657 493.62984 
L 334.435986 497.374521 
L 338.866316 489.88516 
L 343.296645 478.651117 
L 347.726974 452.438351 
L 352.157304 437.459628 
L 356.587633 403.7575 
L 361.017963 388.778777 
L 365.448292 373.800053 
L 369.878622 366.310691 
L 374.308951 325.119202 
L 378.739281 291.417074 
L 383.16961 276.438351 
L 387.59994 298.906436 
L 392.030269 310.140479 
L 396.460599 332.608564 
L 400.890928 362.566011 
L 405.321258 358.82133 
L 409.751587 366.310691 
L 414.181917 366.310691 
L 418.612246 366.310691 
L 423.042576 370.055372 
L 427.472905 373.800053 
L 431.903235 392.523457 
L 436.333564 388.778777 
L 440.763894 396.268138 
L 445.194223 403.7575 
L 449.624553 403.7575 
L 454.054882 411.246862 
L 458.485212 403.7575 
L 462.915541 400.012819 
L 467.345871 403.7575 
L 471.7762 400.012819 
L 476.20653 396.268138 
L 480.636859 407.502181 
L 485.067189 414.991543 
L 489.497518 418.736223 
L 493.927848 400.012819 
L 498.358177 400.012819 
L 502.788507 400.012819 
L 507.218836 388.778777 
L 511.649166 392.523457 
L 516.079495 407.502181 
L 520.509825 400.012819 
L 524.940154 385.034096 
L 529.370484 373.800053 
L 533.800813 381.289415 
L 538.231143 403.7575 
L 542.661472 414.991543 
L 547.091802 407.502181 
L 551.522131 400.012819 
L 555.952461 414.991543 
L 560.38279 407.502181 
L 564.81312 355.076649 
L 569.243449 272.69367 
L 573.673779 306.395798 
L 578.104108 283.927713 
L 582.534438 280.183032 
L 586.964767 250.225585 
L 591.395097 261.459628 
L 595.825426 276.438351 
L 600.255756 295.161755 
L 604.686085 332.608564 
L 609.116415 366.310691 
L 613.546744 396.268138 
L 617.977074 400.012819 
L 622.407403 418.736223 
L 626.837733 456.183032 
L 631.268062 467.417074 
L 635.698392 456.183032 
L 640.128721 456.183032 
L 644.559051 463.672394 
L 648.98938 463.672394 
L 653.41971 489.88516 
L 657.850039 508.608564 
L 662.280369 512.353245 
L 666.710698 519.842606 
L 671.141028 512.353245 
L 675.571357 523.587287 
L 680.001687 523.587287 
L 684.432016 531.076649 
L 688.862346 531.076649 
L 693.292675 546.055372 
L 697.723005 542.310691 
L 702.153334 549.800053 
L 706.583664 557.289415 
L 711.013993 553.544734 
L 715.444323 561.034096 
L 719.874652 561.034096 
L 724.304982 561.034096 
L 728.735311 561.034096 
L 733.165641 561.034096 
L 737.59597 561.034096 
L 742.0263 564.778777 
L 746.456629 564.778777 
L 750.886959 564.778777 
L 755.317288 564.778777 
L 759.747618 568.523457 
L 764.177947 572.268138 
L 768.608277 572.268138 
L 773.038606 572.268138 
L 777.468936 576.012819 
L 781.899265 576.012819 
L 786.329595 576.012819 
L 790.759924 576.012819 
L 795.190254 576.012819 
L 799.620583 576.012819 
L 804.050913 576.012819 
L 808.481242 576.012819 
L 812.911572 576.012819 
L 817.341901 576.012819 
L 821.772231 579.7575 
L 826.20256 579.7575 
L 830.63289 579.7575 
L 835.063219 579.7575 
L 839.493549 579.7575 
L 843.923878 579.7575 
L 848.354208 579.7575 
L 852.784537 579.7575 
L 857.214867 579.7575 
L 861.645196 579.7575 
L 866.075526 576.012819 
L 870.505855 576.012819 
L 874.936184 576.012819 
L 879.366514 576.012819 
L 883.796843 576.012819 
L 888.227173 576.012819 
L 892.657502 576.012819 
L 897.087832 576.012819 
L 901.518161 576.012819 
L 905.948491 576.012819 
L 910.37882 576.012819 
L 914.80915 576.012819 
L 919.239479 576.012819 
L 923.669809 576.012819 
L 928.100138 576.012819 
L 932.530468 576.012819 
L 936.960797 576.012819 
L 941.391127 576.012819 
L 945.821456 576.012819 
L 950.251786 576.012819 
L 954.682115 576.012819 
L 959.112445 576.012819 
L 963.542774 576.012819 
L 967.973104 576.012819 
L 972.403433 576.012819 
L 976.833763 576.012819 
L 981.264092 576.012819 
L 985.694422 576.012819 
L 990.124751 576.012819 
L 994.555081 576.012819 
L 998.98541 576.012819 
L 1003.41574 576.012819 
L 1007.846069 576.012819 
L 1012.276399 576.012819 
L 1016.706728 576.012819 
L 1021.137058 579.7575 
L 1025.567387 579.7575 
L 1029.997717 579.7575 
L 1034.428046 579.7575 
L 1038.858376 579.7575 
L 1043.288705 579.7575 
L 1047.719035 579.7575 
L 1052.149364 579.7575 
L 1056.579694 579.7575 
L 1061.010023 579.7575 
L 1065.440353 579.7575 
L 1069.870682 579.7575 
L 1074.301012 579.7575 
L 1078.731341 579.7575 
L 1083.161671 579.7575 
L 1087.592 579.7575 
L 1092.02233 579.7575 
L 1096.452659 579.7575 
L 1100.882989 579.7575 
L 1105.313318 579.7575 
L 1109.743648 579.7575 
L 1114.173977 579.7575 
L 1114.173977 579.7575 
L 1114.173977 579.7575 
L 1109.743648 579.7575 
L 1105.313318 579.7575 
L 1100.882989 579.7575 
L 1096.452659 579.7575 
L 1092.02233 579.7575 
L 1087.592 579.7575 
L 1083.161671 579.7575 
L 1078.731341 579.7575 
L 1074.301012 579.7575 
L 1069.870682 579.7575 
L 1065.440353 579.7575 
L 1061.010023 579.7575 
L 1056.579694 579.7575 
L 1052.149364 579.7575 
L 1047.719035 579.7575 
L 1043.288705 579.7575 
L 1038.858376 579.7575 
L 1034.428046 579.7575 
L 1029.997717 579.7575 
L 1025.567387 579.7575 
L 1021.137058 579.7575 
L 1016.706728 576.012819 
L 1012.276399 576.012819 
L 1007.846069 576.012819 
L 1003.41574 576.012819 
L 998.98541 576.012819 
L 994.555081 576.012819 
L 990.124751 576.012819 
L 985.694422 576.012819 
L 981.264092 572.268138 
L 976.833763 572.268138 
L 972.403433 576.012819 
L 967.973104 576.012819 
L 963.542774 576.012819 
L 959.112445 576.012819 
L 954.682115 576.012819 
L 950.251786 576.012819 
L 945.821456 576.012819 
L 941.391127 576.012819 
L 936.960797 576.012819 
L 932.530468 576.012819 
L 928.100138 576.012819 
L 923.669809 576.012819 
L 919.239479 576.012819 
L 914.80915 576.012819 
L 910.37882 576.012819 
L 905.948491 576.012819 
L 901.518161 576.012819 
L 897.087832 576.012819 
L 892.657502 572.268138 
L 888.227173 572.268138 
L 883.796843 572.268138 
L 879.366514 572.268138 
L 874.936184 572.268138 
L 870.505855 572.268138 
L 866.075526 572.268138 
L 861.645196 576.012819 
L 857.214867 576.012819 
L 852.784537 576.012819 
L 848.354208 576.012819 
L 843.923878 576.012819 
L 839.493549 576.012819 
L 835.063219 576.012819 
L 830.63289 576.012819 
L 826.20256 576.012819 
L 821.772231 576.012819 
L 817.341901 572.268138 
L 812.911572 572.268138 
L 808.481242 572.268138 
L 804.050913 572.268138 
L 799.620583 572.268138 
L 795.190254 572.268138 
L 790.759924 572.268138 
L 786.329595 572.268138 
L 781.899265 572.268138 
L 777.468936 572.268138 
L 773.038606 568.523457 
L 768.608277 568.523457 
L 764.177947 568.523457 
L 759.747618 564.778777 
L 755.317288 561.034096 
L 750.886959 561.034096 
L 746.456629 561.034096 
L 742.0263 561.034096 
L 737.59597 561.034096 
L 733.165641 561.034096 
L 728.735311 561.034096 
L 724.304982 561.034096 
L 719.874652 561.034096 
L 715.444323 561.034096 
L 711.013993 553.544734 
L 706.583664 553.544734 
L 702.153334 549.800053 
L 697.723005 542.310691 
L 693.292675 538.566011 
L 688.862346 523.587287 
L 684.432016 523.587287 
L 680.001687 512.353245 
L 675.571357 512.353245 
L 671.141028 501.119202 
L 666.710698 508.608564 
L 662.280369 504.863883 
L 657.850039 489.88516 
L 653.41971 467.417074 
L 648.98938 448.69367 
L 644.559051 456.183032 
L 640.128721 441.204309 
L 635.698392 426.225585 
L 631.268062 426.225585 
L 626.837733 418.736223 
L 622.407403 385.034096 
L 617.977074 373.800053 
L 613.546744 358.82133 
L 609.116415 321.374521 
L 604.686085 280.183032 
L 600.255756 268.948989 
L 595.825426 242.736223 
L 591.395097 242.736223 
L 586.964767 224.012819 
L 582.534438 238.991543 
L 578.104108 242.736223 
L 573.673779 253.970266 
L 569.243449 253.970266 
L 564.81312 340.097926 
L 560.38279 388.778777 
L 555.952461 396.268138 
L 551.522131 385.034096 
L 547.091802 388.778777 
L 542.661472 377.544734 
L 538.231143 373.800053 
L 533.800813 370.055372 
L 529.370484 355.076649 
L 524.940154 362.566011 
L 520.509825 362.566011 
L 516.079495 373.800053 
L 511.649166 381.289415 
L 507.218836 385.034096 
L 502.788507 400.012819 
L 498.358177 396.268138 
L 493.927848 392.523457 
L 489.497518 403.7575 
L 485.067189 407.502181 
L 480.636859 385.034096 
L 476.20653 385.034096 
L 471.7762 392.523457 
L 467.345871 385.034096 
L 462.915541 381.289415 
L 458.485212 392.523457 
L 454.054882 403.7575 
L 449.624553 392.523457 
L 445.194223 388.778777 
L 440.763894 385.034096 
L 436.333564 373.800053 
L 431.903235 362.566011 
L 427.472905 343.842606 
L 423.042576 332.608564 
L 418.612246 332.608564 
L 414.181917 336.353245 
L 409.751587 328.863883 
L 405.321258 317.62984 
L 400.890928 310.140479 
L 396.460599 280.183032 
L 392.030269 257.714947 
L 387.59994 272.69367 
L 383.16961 272.69367 
L 378.739281 291.417074 
L 374.308951 321.374521 
L 369.878622 358.82133 
L 365.448292 370.055372 
L 361.017963 388.778777 
L 356.587633 403.7575 
L 352.157304 429.970266 
L 347.726974 444.948989 
L 343.296645 467.417074 
L 338.866316 482.395798 
L 334.435986 489.88516 
L 330.005657 493.62984 
L 325.575327 489.88516 
L 321.144998 493.62984 
L 316.714668 501.119202 
L 312.284339 504.863883 
L 307.854009 516.097926 
L 303.42368 531.076649 
L 298.99335 538.566011 
L 294.563021 542.310691 
L 290.132691 546.055372 
L 285.702362 553.544734 
L 281.272032 553.544734 
L 276.841703 553.544734 
L 272.411373 553.544734 
L 267.981044 553.544734 
L 263.550714 557.289415 
L 259.120385 564.778777 
L 254.690055 572.268138 
L 250.259726 572.268138 
L 245.829396 568.523457 
L 241.399067 568.523457 
L 236.968737 568.523457 
L 232.538408 568.523457 
L 228.108078 568.523457 
L 223.677749 572.268138 
L 219.247419 572.268138 
L 214.81709 572.268138 
L 210.38676 572.268138 
L 205.956431 572.268138 
L 201.526101 572.268138 
L 197.095772 572.268138 
L 192.665442 568.523457 
L 188.235113 568.523457 
L 183.804783 568.523457 
L 179.374454 568.523457 
L 174.944124 568.523457 
L 170.513795 568.523457 
L 166.083465 568.523457 
L 161.653136 572.268138 
L 157.222806 576.012819 
L 152.792477 576.012819 
L 148.362147 576.012819 
L 143.931818 576.012819 
L 139.501488 576.012819 
L 135.071159 576.012819 
L 130.640829 576.012819 
L 126.2105 576.012819 
L 121.78017 576.012819 
L 117.349841 576.012819 
L 112.919511 576.012819 
L 108.489182 576.012819 
L 104.058852 576.012819 
L 99.628523 576.012819 
z
" clip-path="url(#p66c7a3323d)" style="fill: #d9d9d9"/>
   </g>
   <g id="FillBetweenPolyCollection_6">
    <path d="M 99.628523 576.012819 
L 99.628523 576.012819 
L 104.058852 576.012819 
L 108.489182 576.012819 
L 112.919511 576.012819 
L 117.349841 576.012819 
L 121.78017 576.012819 
L 126.2105 576.012819 
L 130.640829 576.012819 
L 135.071159 576.012819 
L 139.501488 576.012819 
L 143.931818 576.012819 
L 148.362147 576.012819 
L 152.792477 576.012819 
L 157.222806 576.012819 
L 161.653136 572.268138 
L 166.083465 568.523457 
L 170.513795 568.523457 
L 174.944124 568.523457 
L 179.374454 568.523457 
L 183.804783 568.523457 
L 188.235113 568.523457 
L 192.665442 568.523457 
L 197.095772 572.268138 
L 201.526101 572.268138 
L 205.956431 572.268138 
L 210.38676 572.268138 
L 214.81709 572.268138 
L 219.247419 572.268138 
L 223.677749 572.268138 
L 228.108078 568.523457 
L 232.538408 568.523457 
L 236.968737 568.523457 
L 241.399067 568.523457 
L 245.829396 568.523457 
L 250.259726 572.268138 
L 254.690055 572.268138 
L 259.120385 564.778777 
L 263.550714 557.289415 
L 267.981044 553.544734 
L 272.411373 553.544734 
L 276.841703 553.544734 
L 281.272032 553.544734 
L 285.702362 553.544734 
L 290.132691 546.055372 
L 294.563021 542.310691 
L 298.99335 538.566011 
L 303.42368 531.076649 
L 307.854009 516.097926 
L 312.284339 504.863883 
L 316.714668 501.119202 
L 321.144998 493.62984 
L 325.575327 489.88516 
L 330.005657 493.62984 
L 334.435986 489.88516 
L 338.866316 482.395798 
L 343.296645 467.417074 
L 347.726974 444.948989 
L 352.157304 429.970266 
L 356.587633 403.7575 
L 361.017963 388.778777 
L 365.448292 370.055372 
L 369.878622 358.82133 
L 374.308951 321.374521 
L 378.739281 291.417074 
L 383.16961 272.69367 
L 387.59994 272.69367 
L 392.030269 257.714947 
L 396.460599 280.183032 
L 400.890928 310.140479 
L 405.321258 317.62984 
L 409.751587 328.863883 
L 414.181917 336.353245 
L 418.612246 332.608564 
L 423.042576 332.608564 
L 427.472905 343.842606 
L 431.903235 362.566011 
L 436.333564 373.800053 
L 440.763894 385.034096 
L 445.194223 388.778777 
L 449.624553 392.523457 
L 454.054882 403.7575 
L 458.485212 392.523457 
L 462.915541 381.289415 
L 467.345871 385.034096 
L 471.7762 392.523457 
L 476.20653 385.034096 
L 480.636859 385.034096 
L 485.067189 407.502181 
L 489.497518 403.7575 
L 493.927848 392.523457 
L 498.358177 396.268138 
L 502.788507 400.012819 
L 507.218836 385.034096 
L 511.649166 381.289415 
L 516.079495 373.800053 
L 520.509825 362.566011 
L 524.940154 362.566011 
L 529.370484 355.076649 
L 533.800813 370.055372 
L 538.231143 373.800053 
L 542.661472 377.544734 
L 547.091802 388.778777 
L 551.522131 385.034096 
L 555.952461 396.268138 
L 560.38279 388.778777 
L 564.81312 340.097926 
L 569.243449 253.970266 
L 573.673779 253.970266 
L 578.104108 242.736223 
L 582.534438 238.991543 
L 586.964767 224.012819 
L 591.395097 242.736223 
L 595.825426 242.736223 
L 600.255756 268.948989 
L 604.686085 280.183032 
L 609.116415 321.374521 
L 613.546744 358.82133 
L 617.977074 373.800053 
L 622.407403 385.034096 
L 626.837733 418.736223 
L 631.268062 426.225585 
L 635.698392 426.225585 
L 640.128721 441.204309 
L 644.559051 456.183032 
L 648.98938 448.69367 
L 653.41971 467.417074 
L 657.850039 489.88516 
L 662.280369 504.863883 
L 666.710698 508.608564 
L 671.141028 501.119202 
L 675.571357 512.353245 
L 680.001687 512.353245 
L 684.432016 523.587287 
L 688.862346 523.587287 
L 693.292675 538.566011 
L 697.723005 542.310691 
L 702.153334 549.800053 
L 706.583664 553.544734 
L 711.013993 553.544734 
L 715.444323 561.034096 
L 719.874652 561.034096 
L 724.304982 561.034096 
L 728.735311 561.034096 
L 733.165641 561.034096 
L 737.59597 561.034096 
L 742.0263 561.034096 
L 746.456629 561.034096 
L 750.886959 561.034096 
L 755.317288 561.034096 
L 759.747618 564.778777 
L 764.177947 568.523457 
L 768.608277 568.523457 
L 773.038606 568.523457 
L 777.468936 572.268138 
L 781.899265 572.268138 
L 786.329595 572.268138 
L 790.759924 572.268138 
L 795.190254 572.268138 
L 799.620583 572.268138 
L 804.050913 572.268138 
L 808.481242 572.268138 
L 812.911572 572.268138 
L 817.341901 572.268138 
L 821.772231 576.012819 
L 826.20256 576.012819 
L 830.63289 576.012819 
L 835.063219 576.012819 
L 839.493549 576.012819 
L 843.923878 576.012819 
L 848.354208 576.012819 
L 852.784537 576.012819 
L 857.214867 576.012819 
L 861.645196 576.012819 
L 866.075526 572.268138 
L 870.505855 572.268138 
L 874.936184 572.268138 
L 879.366514 572.268138 
L 883.796843 572.268138 
L 888.227173 572.268138 
L 892.657502 572.268138 
L 897.087832 576.012819 
L 901.518161 576.012819 
L 905.948491 576.012819 
L 910.37882 576.012819 
L 914.80915 576.012819 
L 919.239479 576.012819 
L 923.669809 576.012819 
L 928.100138 576.012819 
L 932.530468 576.012819 
L 936.960797 576.012819 
L 941.391127 576.012819 
L 945.821456 576.012819 
L 950.251786 576.012819 
L 954.682115 576.012819 
L 959.112445 576.012819 
L 963.542774 576.012819 
L 967.973104 576.012819 
L 972.403433 576.012819 
L 976.833763 572.268138 
L 981.264092 572.268138 
L 985.694422 576.012819 
L 990.124751 576.012819 
L 994.555081 576.012819 
L 998.98541 576.012819 
L 1003.41574 576.012819 
L 1007.846069 576.012819 
L 1012.276399 576.012819 
L 1016.706728 576.012819 
L 1021.137058 579.7575 
L 1025.567387 579.7575 
L 1029.997717 579.7575 
L 1034.428046 579.7575 
L 1038.858376 579.7575 
L 1043.288705 579.7575 
L 1047.719035 579.7575 
L 1052.149364 579.7575 
L 1056.579694 579.7575 
L 1061.010023 579.7575 
L 1065.440353 579.7575 
L 1069.870682 579.7575 
L 1074.301012 579.7575 
L 1078.731341 579.7575 
L 1083.161671 579.7575 
L 1087.592 579.7575 
L 1092.02233 579.7575 
L 1096.452659 579.7575 
L 1100.882989 579.7575 
L 1105.313318 579.7575 
L 1109.743648 579.7575 
L 1114.173977 579.7575 
L 1114.173977 576.012819 
L 1114.173977 576.012819 
L 1109.743648 576.012819 
L 1105.313318 576.012819 
L 1100.882989 576.012819 
L 1096.452659 576.012819 
L 1092.02233 576.012819 
L 1087.592 576.012819 
L 1083.161671 576.012819 
L 1078.731341 576.012819 
L 1074.301012 576.012819 
L 1069.870682 576.012819 
L 1065.440353 576.012819 
L 1061.010023 576.012819 
L 1056.579694 576.012819 
L 1052.149364 576.012819 
L 1047.719035 576.012819 
L 1043.288705 576.012819 
L 1038.858376 576.012819 
L 1034.428046 576.012819 
L 1029.997717 576.012819 
L 1025.567387 576.012819 
L 1021.137058 576.012819 
L 1016.706728 572.268138 
L 1012.276399 572.268138 
L 1007.846069 572.268138 
L 1003.41574 572.268138 
L 998.98541 572.268138 
L 994.555081 572.268138 
L 990.124751 572.268138 
L 985.694422 572.268138 
L 981.264092 568.523457 
L 976.833763 568.523457 
L 972.403433 568.523457 
L 967.973104 568.523457 
L 963.542774 568.523457 
L 959.112445 568.523457 
L 954.682115 568.523457 
L 950.251786 568.523457 
L 945.821456 568.523457 
L 941.391127 568.523457 
L 936.960797 568.523457 
L 932.530468 568.523457 
L 928.100138 568.523457 
L 923.669809 568.523457 
L 919.239479 564.778777 
L 914.80915 564.778777 
L 910.37882 564.778777 
L 905.948491 564.778777 
L 901.518161 564.778777 
L 897.087832 564.778777 
L 892.657502 561.034096 
L 888.227173 561.034096 
L 883.796843 561.034096 
L 879.366514 561.034096 
L 874.936184 561.034096 
L 870.505855 557.289415 
L 866.075526 553.544734 
L 861.645196 549.800053 
L 857.214867 549.800053 
L 852.784537 549.800053 
L 848.354208 546.055372 
L 843.923878 546.055372 
L 839.493549 546.055372 
L 835.063219 546.055372 
L 830.63289 546.055372 
L 826.20256 546.055372 
L 821.772231 546.055372 
L 817.341901 542.310691 
L 812.911572 542.310691 
L 808.481242 542.310691 
L 804.050913 542.310691 
L 799.620583 534.82133 
L 795.190254 534.82133 
L 790.759924 534.82133 
L 786.329595 527.331968 
L 781.899265 527.331968 
L 777.468936 523.587287 
L 773.038606 523.587287 
L 768.608277 516.097926 
L 764.177947 516.097926 
L 759.747618 504.863883 
L 755.317288 501.119202 
L 750.886959 493.62984 
L 746.456629 493.62984 
L 742.0263 493.62984 
L 737.59597 482.395798 
L 733.165641 474.906436 
L 728.735311 474.906436 
L 724.304982 471.161755 
L 719.874652 467.417074 
L 715.444323 459.927713 
L 711.013993 456.183032 
L 706.583664 448.69367 
L 702.153334 441.204309 
L 697.723005 429.970266 
L 693.292675 418.736223 
L 688.862346 400.012819 
L 684.432016 400.012819 
L 680.001687 385.034096 
L 675.571357 385.034096 
L 671.141028 366.310691 
L 666.710698 362.566011 
L 662.280369 358.82133 
L 657.850039 347.587287 
L 653.41971 310.140479 
L 648.98938 298.906436 
L 644.559051 295.161755 
L 640.128721 276.438351 
L 635.698392 250.225585 
L 631.268062 242.736223 
L 626.837733 216.523457 
L 622.407403 197.800053 
L 617.977074 171.587287 
L 613.546744 160.353245 
L 609.116415 122.906436 
L 604.686085 81.714947 
L 600.255756 81.714947 
L 595.825426 59.246862 
L 591.395097 62.991543 
L 586.964767 59.246862 
L 582.534438 92.948989 
L 578.104108 104.183032 
L 573.673779 119.161755 
L 569.243449 137.88516 
L 564.81312 227.7575 
L 560.38279 276.438351 
L 555.952461 283.927713 
L 551.522131 272.69367 
L 547.091802 272.69367 
L 542.661472 257.714947 
L 538.231143 250.225585 
L 533.800813 250.225585 
L 529.370484 231.502181 
L 524.940154 246.480904 
L 520.509825 250.225585 
L 516.079495 257.714947 
L 511.649166 272.69367 
L 507.218836 276.438351 
L 502.788507 283.927713 
L 498.358177 276.438351 
L 493.927848 280.183032 
L 489.497518 276.438351 
L 485.067189 272.69367 
L 480.636859 268.948989 
L 476.20653 265.204309 
L 471.7762 272.69367 
L 467.345871 268.948989 
L 462.915541 261.459628 
L 458.485212 272.69367 
L 454.054882 268.948989 
L 449.624553 268.948989 
L 445.194223 265.204309 
L 440.763894 265.204309 
L 436.333564 272.69367 
L 431.903235 280.183032 
L 427.472905 280.183032 
L 423.042576 287.672394 
L 418.612246 287.672394 
L 414.181917 283.927713 
L 409.751587 280.183032 
L 405.321258 272.69367 
L 400.890928 268.948989 
L 396.460599 231.502181 
L 392.030269 220.268138 
L 387.59994 227.7575 
L 383.16961 238.991543 
L 378.739281 268.948989 
L 374.308951 306.395798 
L 369.878622 343.842606 
L 365.448292 355.076649 
L 361.017963 373.800053 
L 356.587633 392.523457 
L 352.157304 426.225585 
L 347.726974 441.204309 
L 343.296645 463.672394 
L 338.866316 482.395798 
L 334.435986 482.395798 
L 330.005657 486.140479 
L 325.575327 486.140479 
L 321.144998 489.88516 
L 316.714668 493.62984 
L 312.284339 501.119202 
L 307.854009 512.353245 
L 303.42368 527.331968 
L 298.99335 538.566011 
L 294.563021 542.310691 
L 290.132691 546.055372 
L 285.702362 549.800053 
L 281.272032 549.800053 
L 276.841703 549.800053 
L 272.411373 549.800053 
L 267.981044 549.800053 
L 263.550714 553.544734 
L 259.120385 561.034096 
L 254.690055 568.523457 
L 250.259726 568.523457 
L 245.829396 568.523457 
L 241.399067 568.523457 
L 236.968737 568.523457 
L 232.538408 568.523457 
L 228.108078 568.523457 
L 223.677749 568.523457 
L 219.247419 568.523457 
L 214.81709 568.523457 
L 210.38676 568.523457 
L 205.956431 568.523457 
L 201.526101 568.523457 
L 197.095772 568.523457 
L 192.665442 568.523457 
L 188.235113 568.523457 
L 183.804783 568.523457 
L 179.374454 568.523457 
L 174.944124 568.523457 
L 170.513795 568.523457 
L 166.083465 568.523457 
L 161.653136 572.268138 
L 157.222806 576.012819 
L 152.792477 576.012819 
L 148.362147 576.012819 
L 143.931818 576.012819 
L 139.501488 576.012819 
L 135.071159 576.012819 
L 130.640829 576.012819 
L 126.2105 576.012819 
L 121.78017 576.012819 
L 117.349841 576.012819 
L 112.919511 576.012819 
L 108.489182 576.012819 
L 104.058852 576.012819 
L 99.628523 576.012819 
z
" clip-path="url(#p66c7a3323d)" style="fill: #3b8ea5"/>
   </g>
   <g id="FillBetweenPolyCollection_7">
    <path d="M 99.628523 576.012819 
L 99.628523 576.012819 
L 104.058852 576.012819 
L 108.489182 576.012819 
L 112.919511 576.012819 
L 117.349841 576.012819 
L 121.78017 576.012819 
L 126.2105 576.012819 
L 130.640829 576.012819 
L 135.071159 576.012819 
L 139.501488 576.012819 
L 143.931818 576.012819 
L 148.362147 576.012819 
L 152.792477 576.012819 
L 157.222806 576.012819 
L 161.653136 572.268138 
L 166.083465 568.523457 
L 170.513795 568.523457 
L 174.944124 568.523457 
L 179.374454 568.523457 
L 183.804783 568.523457 
L 188.235113 568.523457 
L 192.665442 568.523457 
L 197.095772 568.523457 
L 201.526101 568.523457 
L 205.956431 568.523457 
L 210.38676 568.523457 
L 214.81709 568.523457 
L 219.247419 568.523457 
L 223.677749 568.523457 
L 228.108078 568.523457 
L 232.538408 568.523457 
L 236.968737 568.523457 
L 241.399067 568.523457 
L 245.829396 568.523457 
L 250.259726 568.523457 
L 254.690055 568.523457 
L 259.120385 561.034096 
L 263.550714 553.544734 
L 267.981044 549.800053 
L 272.411373 549.800053 
L 276.841703 549.800053 
L 281.272032 549.800053 
L 285.702362 549.800053 
L 290.132691 546.055372 
L 294.563021 542.310691 
L 298.99335 538.566011 
L 303.42368 527.331968 
L 307.854009 512.353245 
L 312.284339 501.119202 
L 316.714668 493.62984 
L 321.144998 489.88516 
L 325.575327 486.140479 
L 330.005657 486.140479 
L 334.435986 482.395798 
L 338.866316 482.395798 
L 343.296645 463.672394 
L 347.726974 441.204309 
L 352.157304 426.225585 
L 356.587633 392.523457 
L 361.017963 373.800053 
L 365.448292 355.076649 
L 369.878622 343.842606 
L 374.308951 306.395798 
L 378.739281 268.948989 
L 383.16961 238.991543 
L 387.59994 227.7575 
L 392.030269 220.268138 
L 396.460599 231.502181 
L 400.890928 268.948989 
L 405.321258 272.69367 
L 409.751587 280.183032 
L 414.181917 283.927713 
L 418.612246 287.672394 
L 423.042576 287.672394 
L 427.472905 280.183032 
L 431.903235 280.183032 
L 436.333564 272.69367 
L 440.763894 265.204309 
L 445.194223 265.204309 
L 449.624553 268.948989 
L 454.054882 268.948989 
L 458.485212 272.69367 
L 462.915541 261.459628 
L 467.345871 268.948989 
L 471.7762 272.69367 
L 476.20653 265.204309 
L 480.636859 268.948989 
L 485.067189 272.69367 
L 489.497518 276.438351 
L 493.927848 280.183032 
L 498.358177 276.438351 
L 502.788507 283.927713 
L 507.218836 276.438351 
L 511.649166 272.69367 
L 516.079495 257.714947 
L 520.509825 250.225585 
L 524.940154 246.480904 
L 529.370484 231.502181 
L 533.800813 250.225585 
L 538.231143 250.225585 
L 542.661472 257.714947 
L 547.091802 272.69367 
L 551.522131 272.69367 
L 555.952461 283.927713 
L 560.38279 276.438351 
L 564.81312 227.7575 
L 569.243449 137.88516 
L 573.673779 119.161755 
L 578.104108 104.183032 
L 582.534438 92.948989 
L 586.964767 59.246862 
L 591.395097 62.991543 
L 595.825426 59.246862 
L 600.255756 81.714947 
L 604.686085 81.714947 
L 609.116415 122.906436 
L 613.546744 160.353245 
L 617.977074 171.587287 
L 622.407403 197.800053 
L 626.837733 216.523457 
L 631.268062 242.736223 
L 635.698392 250.225585 
L 640.128721 276.438351 
L 644.559051 295.161755 
L 648.98938 298.906436 
L 653.41971 310.140479 
L 657.850039 347.587287 
L 662.280369 358.82133 
L 666.710698 362.566011 
L 671.141028 366.310691 
L 675.571357 385.034096 
L 680.001687 385.034096 
L 684.432016 400.012819 
L 688.862346 400.012819 
L 693.292675 418.736223 
L 697.723005 429.970266 
L 702.153334 441.204309 
L 706.583664 448.69367 
L 711.013993 456.183032 
L 715.444323 459.927713 
L 719.874652 467.417074 
L 724.304982 471.161755 
L 728.735311 474.906436 
L 733.165641 474.906436 
L 737.59597 482.395798 
L 742.0263 493.62984 
L 746.456629 493.62984 
L 750.886959 493.62984 
L 755.317288 501.119202 
L 759.747618 504.863883 
L 764.177947 516.097926 
L 768.608277 516.097926 
L 773.038606 523.587287 
L 777.468936 523.587287 
L 781.899265 527.331968 
L 786.329595 527.331968 
L 790.759924 534.82133 
L 795.190254 534.82133 
L 799.620583 534.82133 
L 804.050913 542.310691 
L 808.481242 542.310691 
L 812.911572 542.310691 
L 817.341901 542.310691 
L 821.772231 546.055372 
L 826.20256 546.055372 
L 830.63289 546.055372 
L 835.063219 546.055372 
L 839.493549 546.055372 
L 843.923878 546.055372 
L 848.354208 546.055372 
L 852.784537 549.800053 
L 857.214867 549.800053 
L 861.645196 549.800053 
L 866.075526 553.544734 
L 870.505855 557.289415 
L 874.936184 561.034096 
L 879.366514 561.034096 
L 883.796843 561.034096 
L 888.227173 561.034096 
L 892.657502 561.034096 
L 897.087832 564.778777 
L 901.518161 564.778777 
L 905.948491 564.778777 
L 910.37882 564.778777 
L 914.80915 564.778777 
L 919.239479 564.778777 
L 923.669809 568.523457 
L 928.100138 568.523457 
L 932.530468 568.523457 
L 936.960797 568.523457 
L 941.391127 568.523457 
L 945.821456 568.523457 
L 950.251786 568.523457 
L 954.682115 568.523457 
L 959.112445 568.523457 
L 963.542774 568.523457 
L 967.973104 568.523457 
L 972.403433 568.523457 
L 976.833763 568.523457 
L 981.264092 568.523457 
L 985.694422 572.268138 
L 990.124751 572.268138 
L 994.555081 572.268138 
L 998.98541 572.268138 
L 1003.41574 572.268138 
L 1007.846069 572.268138 
L 1012.276399 572.268138 
L 1016.706728 572.268138 
L 1021.137058 576.012819 
L 1025.567387 576.012819 
L 1029.997717 576.012819 
L 1034.428046 576.012819 
L 1038.858376 576.012819 
L 1043.288705 576.012819 
L 1047.719035 576.012819 
L 1052.149364 576.012819 
L 1056.579694 576.012819 
L 1061.010023 576.012819 
L 1065.440353 576.012819 
L 1069.870682 576.012819 
L 1074.301012 576.012819 
L 1078.731341 576.012819 
L 1083.161671 576.012819 
L 1087.592 576.012819 
L 1092.02233 576.012819 
L 1096.452659 576.012819 
L 1100.882989 576.012819 
L 1105.313318 576.012819 
L 1109.743648 576.012819 
L 1114.173977 576.012819 
L 1114.173977 576.012819 
L 1114.173977 576.012819 
L 1109.743648 576.012819 
L 1105.313318 576.012819 
L 1100.882989 576.012819 
L 1096.452659 576.012819 
L 1092.02233 576.012819 
L 1087.592 576.012819 
L 1083.161671 576.012819 
L 1078.731341 576.012819 
L 1074.301012 576.012819 
L 1069.870682 576.012819 
L 1065.440353 576.012819 
L 1061.010023 576.012819 
L 1056.579694 576.012819 
L 1052.149364 576.012819 
L 1047.719035 576.012819 
L 1043.288705 576.012819 
L 1038.858376 576.012819 
L 1034.428046 576.012819 
L 1029.997717 576.012819 
L 1025.567387 576.012819 
L 1021.137058 576.012819 
L 1016.706728 572.268138 
L 1012.276399 572.268138 
L 1007.846069 572.268138 
L 1003.41574 572.268138 
L 998.98541 572.268138 
L 994.555081 572.268138 
L 990.124751 572.268138 
L 985.694422 572.268138 
L 981.264092 568.523457 
L 976.833763 568.523457 
L 972.403433 568.523457 
L 967.973104 568.523457 
L 963.542774 568.523457 
L 959.112445 568.523457 
L 954.682115 568.523457 
L 950.251786 568.523457 
L 945.821456 568.523457 
L 941.391127 568.523457 
L 936.960797 568.523457 
L 932.530468 568.523457 
L 928.100138 568.523457 
L 923.669809 568.523457 
L 919.239479 564.778777 
L 914.80915 564.778777 
L 910.37882 564.778777 
L 905.948491 564.778777 
L 901.518161 564.778777 
L 897.087832 564.778777 
L 892.657502 561.034096 
L 888.227173 561.034096 
L 883.796843 561.034096 
L 879.366514 561.034096 
L 874.936184 561.034096 
L 870.505855 557.289415 
L 866.075526 553.544734 
L 861.645196 549.800053 
L 857.214867 549.800053 
L 852.784537 549.800053 
L 848.354208 546.055372 
L 843.923878 546.055372 
L 839.493549 546.055372 
L 835.063219 546.055372 
L 830.63289 546.055372 
L 826.20256 546.055372 
L 821.772231 546.055372 
L 817.341901 542.310691 
L 812.911572 542.310691 
L 808.481242 542.310691 
L 804.050913 542.310691 
L 799.620583 534.82133 
L 795.190254 534.82133 
L 790.759924 534.82133 
L 786.329595 527.331968 
L 781.899265 527.331968 
L 777.468936 523.587287 
L 773.038606 523.587287 
L 768.608277 516.097926 
L 764.177947 516.097926 
L 759.747618 504.863883 
L 755.317288 501.119202 
L 750.886959 493.62984 
L 746.456629 493.62984 
L 742.0263 493.62984 
L 737.59597 482.395798 
L 733.165641 474.906436 
L 728.735311 474.906436 
L 724.304982 471.161755 
L 719.874652 467.417074 
L 715.444323 459.927713 
L 711.013993 456.183032 
L 706.583664 448.69367 
L 702.153334 441.204309 
L 697.723005 429.970266 
L 693.292675 418.736223 
L 688.862346 400.012819 
L 684.432016 400.012819 
L 680.001687 385.034096 
L 675.571357 385.034096 
L 671.141028 366.310691 
L 666.710698 362.566011 
L 662.280369 358.82133 
L 657.850039 347.587287 
L 653.41971 302.651117 
L 648.98938 295.161755 
L 644.559051 295.161755 
L 640.128721 276.438351 
L 635.698392 250.225585 
L 631.268062 242.736223 
L 626.837733 216.523457 
L 622.407403 197.800053 
L 617.977074 171.587287 
L 613.546744 156.608564 
L 609.116415 122.906436 
L 604.686085 77.970266 
L 600.255756 74.225585 
L 595.825426 51.7575 
L 591.395097 59.246862 
L 586.964767 59.246862 
L 582.534438 92.948989 
L 578.104108 104.183032 
L 573.673779 119.161755 
L 569.243449 137.88516 
L 564.81312 227.7575 
L 560.38279 276.438351 
L 555.952461 283.927713 
L 551.522131 272.69367 
L 547.091802 272.69367 
L 542.661472 257.714947 
L 538.231143 250.225585 
L 533.800813 250.225585 
L 529.370484 231.502181 
L 524.940154 246.480904 
L 520.509825 250.225585 
L 516.079495 257.714947 
L 511.649166 272.69367 
L 507.218836 276.438351 
L 502.788507 283.927713 
L 498.358177 276.438351 
L 493.927848 280.183032 
L 489.497518 276.438351 
L 485.067189 272.69367 
L 480.636859 268.948989 
L 476.20653 265.204309 
L 471.7762 272.69367 
L 467.345871 268.948989 
L 462.915541 261.459628 
L 458.485212 272.69367 
L 454.054882 268.948989 
L 449.624553 268.948989 
L 445.194223 265.204309 
L 440.763894 265.204309 
L 436.333564 272.69367 
L 431.903235 280.183032 
L 427.472905 280.183032 
L 423.042576 287.672394 
L 418.612246 287.672394 
L 414.181917 283.927713 
L 409.751587 280.183032 
L 405.321258 272.69367 
L 400.890928 268.948989 
L 396.460599 231.502181 
L 392.030269 220.268138 
L 387.59994 227.7575 
L 383.16961 238.991543 
L 378.739281 268.948989 
L 374.308951 306.395798 
L 369.878622 343.842606 
L 365.448292 355.076649 
L 361.017963 373.800053 
L 356.587633 392.523457 
L 352.157304 426.225585 
L 347.726974 441.204309 
L 343.296645 463.672394 
L 338.866316 482.395798 
L 334.435986 482.395798 
L 330.005657 486.140479 
L 325.575327 486.140479 
L 321.144998 489.88516 
L 316.714668 493.62984 
L 312.284339 501.119202 
L 307.854009 512.353245 
L 303.42368 527.331968 
L 298.99335 538.566011 
L 294.563021 542.310691 
L 290.132691 546.055372 
L 285.702362 549.800053 
L 281.272032 549.800053 
L 276.841703 549.800053 
L 272.411373 549.800053 
L 267.981044 549.800053 
L 263.550714 553.544734 
L 259.120385 561.034096 
L 254.690055 568.523457 
L 250.259726 568.523457 
L 245.829396 568.523457 
L 241.399067 568.523457 
L 236.968737 568.523457 
L 232.538408 568.523457 
L 228.108078 568.523457 
L 223.677749 568.523457 
L 219.247419 568.523457 
L 214.81709 568.523457 
L 210.38676 568.523457 
L 205.956431 568.523457 
L 201.526101 568.523457 
L 197.095772 568.523457 
L 192.665442 568.523457 
L 188.235113 568.523457 
L 183.804783 568.523457 
L 179.374454 568.523457 
L 174.944124 568.523457 
L 170.513795 568.523457 
L 166.083465 568.523457 
L 161.653136 572.268138 
L 157.222806 576.012819 
L 152.792477 576.012819 
L 148.362147 576.012819 
L 143.931818 576.012819 
L 139.501488 576.012819 
L 135.071159 576.012819 
L 130.640829 576.012819 
L 126.2105 576.012819 
L 121.78017 576.012819 
L 117.349841 576.012819 
L 112.919511 576.012819 
L 108.489182 576.012819 
L 104.058852 576.012819 
L 99.628523 576.012819 
z
" clip-path="url(#p66c7a3323d)" style="fill: #ffffff"/>
   </g>
   <g id="matplotlib.axis_1">
    <g id="xtick_1">
     <g id="line2d_1">
      <defs>
       <path id="m39e1f6ee4e" d="M 0 0 
L 0 3.5 
" style="stroke: #000000; stroke-width: 0.8"/>
      </defs>
      <g>
       <use xlink:href="#m39e1f6ee4e" x="99.628523" y="579.7575" style="stroke: #000000; stroke-width: 0.8"/>
      </g>
     </g>
     <g id="text_1">
      <text style="font-size: 10px; font-family: 'DejaVu Sans', 'Bitstream Vera Sans', 'Computer Modern Sans Serif', 'Lucida Grande', 'Verdana', 'Geneva', 'Lucid', 'Arial', 'Helvetica', 'Avant Garde', sans-serif; text-anchor: middle" x="99.628523" y="594.355938" transform="rotate(-0 99.628523 594.355938)">1750</text>
     </g>
    </g>
    <g id="xtick_2">
     <g id="line2d_2">
      <g>
       <use xlink:href="#m39e1f6ee4e" x="321.144998" y="579.7575" style="stroke: #000000; stroke-width: 0.8"/>
      </g>
     </g>
     <g id="text_2">
      <text style="font-size: 10px; font-family: 'DejaVu Sans', 'Bitstream Vera Sans', 'Computer Modern Sans Serif', 'Lucida Grande', 'Verdana', 'Geneva', 'Lucid', 'Arial', 'Helvetica', 'Avant Garde', sans-serif; text-anchor: middle" x="321.144998" y="594.355938" transform="rotate(-0 321.144998 594.355938)">1800</text>
     </g>
    </g>
    <g id="xtick_3">
     <g id="line2d_3">
      <g>
       <use xlink:href="#m39e1f6ee4e" x="542.661472" y="579.7575" style="stroke: #000000; stroke-width: 0.8"/>
      </g>
     </g>
     <g id="text_3">
      <text style="font-size: 10px; font-family: 'DejaVu Sans', 'Bitstream Vera Sans', 'Computer Modern Sans Serif', 'Lucida Grande', 'Verdana', 'Geneva', 'Lucid', 'Arial', 'Helvetica', 'Avant Garde', sans-serif; text-anchor: middle" x="542.661472" y="594.355938" transform="rotate(-0 542.661472 594.355938)">1850</text>
     </g>
    </g>
    <g id="xtick_4">
     <g id="line2d_4">
      <g>
       <use xlink:href="#m39e1f6ee4e" x="764.177947" y="579.7575" style="stroke: #000000; stroke-width: 0.8"/>
      </g>
     </g>
     <g id="text_4">
      <text style="font-size: 10px; font-family: 'DejaVu Sans', 'Bitstream Vera Sans', 'Computer Modern Sans Serif', 'Lucida Grande', 'Verdana', 'Geneva', 'Lucid', 'Arial', 'Helvetica', 'Avant Garde', sans-serif; text-anchor: middle" x="764.177947" y="594.355938" transform="rotate(-0 764.177947 594.355938)">1900</text>
     </g>
    </g>
    <g id="xtick_5">
     <g id="line2d_5">
      <g>
       <use xlink:href="#m39e1f6ee4e" x="985.694422" y="579.7575" style="stroke: #000000; stroke-width: 0.8"/>
      </g>
     </g>
     <g id="text_5">
      <text style="font-size: 10px; font-family: 'DejaVu Sans', 'Bitstream Vera Sans', 'Computer Modern Sans Serif', 'Lucida Grande', 'Verdana', 'Geneva', 'Lucid', 'Arial', 'Helvetica', 'Avant Garde', sans-serif; text-anchor: middle" x="985.694422" y="594.355938" transform="rotate(-0 985.694422 594.355938)">1950</text>
     </g>
    </g>
    <g id="text_6">
     <text style="font-size: 12px; font-family: 'DejaVu Sans', 'Bitstream Vera Sans', 'Computer Modern Sans Serif', 'Lucida Grande', 'Verdana', 'Geneva', 'Lucid', 'Arial', 'Helvetica', 'Avant Garde', sans-serif; text-anchor: middle" x="606.90125" y="609.55375" transform="rotate(-0 606.90125 609.55375)">Year (Absolute Time)</text>
    </g>
   </g>
   <g id="matplotlib.axis_2">
    <g id="ytick_1">
     <g id="line2d_6">
      <path d="M 48.90125 579.7575 
L 1164.90125 579.7575 
" clip-path="url(#p66c7a3323d)" style="fill: none; stroke-dasharray: 2.96,1.28; stroke-dashoffset: 0; stroke: #b0b0b0; stroke-opacity: 0.7; stroke-width: 0.8"/>
     </g>
     <g id="line2d_7">
      <defs>
       <path id="m2f7541b2b7" d="M 0 0 
L -3.5 0 
" style="stroke: #000000; stroke-width: 0.8"/>
      </defs>
      <g>
       <use xlink:href="#m2f7541b2b7" x="48.90125" y="579.7575" style="stroke: #000000; stroke-width: 0.8"/>
      </g>
     </g>
     <g id="text_7">
      <text style="font-size: 10px; font-family: 'DejaVu Sans', 'Bitstream Vera Sans', 'Computer Modern Sans Serif', 'Lucida Grande', 'Verdana', 'Geneva', 'Lucid', 'Arial', 'Helvetica', 'Avant Garde', sans-serif; text-anchor: end" x="41.90125" y="583.556719" transform="rotate(-0 41.90125 583.556719)">0</text>
     </g>
    </g>
    <g id="ytick_2">
     <g id="line2d_8">
      <path d="M 48.90125 504.863883 
L 1164.90125 504.863883 
" clip-path="url(#p66c7a3323d)" style="fill: none; stroke-dasharray: 2.96,1.28; stroke-dashoffset: 0; stroke: #b0b0b0; stroke-opacity: 0.7; stroke-width: 0.8"/>
     </g>
     <g id="line2d_9">
      <g>
       <use xlink:href="#m2f7541b2b7" x="48.90125" y="504.863883" style="stroke: #000000; stroke-width: 0.8"/>
      </g>
     </g>
     <g id="text_8">
      <text style="font-size: 10px; font-family: 'DejaVu Sans', 'Bitstream Vera Sans', 'Computer Modern Sans Serif', 'Lucida Grande', 'Verdana', 'Geneva', 'Lucid', 'Arial', 'Helvetica', 'Avant Garde', sans-serif; text-anchor: end" x="41.90125" y="508.663102" transform="rotate(-0 41.90125 508.663102)">20</text>
     </g>
    </g>
    <g id="ytick_3">
     <g id="line2d_10">
      <path d="M 48.90125 429.970266 
L 1164.90125 429.970266 
" clip-path="url(#p66c7a3323d)" style="fill: none; stroke-dasharray: 2.96,1.28; stroke-dashoffset: 0; stroke: #b0b0b0; stroke-opacity: 0.7; stroke-width: 0.8"/>
     </g>
     <g id="line2d_11">
      <g>
       <use xlink:href="#m2f7541b2b7" x="48.90125" y="429.970266" style="stroke: #000000; stroke-width: 0.8"/>
      </g>
     </g>
     <g id="text_9">
      <text style="font-size: 10px; font-family: 'DejaVu Sans', 'Bitstream Vera Sans', 'Computer Modern Sans Serif', 'Lucida Grande', 'Verdana', 'Geneva', 'Lucid', 'Arial', 'Helvetica', 'Avant Garde', sans-serif; text-anchor: end" x="41.90125" y="433.769485" transform="rotate(-0 41.90125 433.769485)">40</text>
     </g>
    </g>
    <g id="ytick_4">
     <g id="line2d_12">
      <path d="M 48.90125 355.076649 
L 1164.90125 355.076649 
" clip-path="url(#p66c7a3323d)" style="fill: none; stroke-dasharray: 2.96,1.28; stroke-dashoffset: 0; stroke: #b0b0b0; stroke-opacity: 0.7; stroke-width: 0.8"/>
     </g>
     <g id="line2d_13">
      <g>
       <use xlink:href="#m2f7541b2b7" x="48.90125" y="355.076649" style="stroke: #000000; stroke-width: 0.8"/>
      </g>
     </g>
     <g id="text_10">
      <text style="font-size: 10px; font-family: 'DejaVu Sans', 'Bitstream Vera Sans', 'Computer Modern Sans Serif', 'Lucida Grande', 'Verdana', 'Geneva', 'Lucid', 'Arial', 'Helvetica', 'Avant Garde', sans-serif; text-anchor: end" x="41.90125" y="358.875868" transform="rotate(-0 41.90125 358.875868)">60</text>
     </g>
    </g>
    <g id="ytick_5">
     <g id="line2d_14">
      <path d="M 48.90125 280.183032 
L 1164.90125 280.183032 
" clip-path="url(#p66c7a3323d)" style="fill: none; stroke-dasharray: 2.96,1.28; stroke-dashoffset: 0; stroke: #b0b0b0; stroke-opacity: 0.7; stroke-width: 0.8"/>
     </g>
     <g id="line2d_15">
      <g>
       <use xlink:href="#m2f7541b2b7" x="48.90125" y="280.183032" style="stroke: #000000; stroke-width: 0.8"/>
      </g>
     </g>
     <g id="text_11">
      <text style="font-size: 10px; font-family: 'DejaVu Sans', 'Bitstream Vera Sans', 'Computer Modern Sans Serif', 'Lucida Grande', 'Verdana', 'Geneva', 'Lucid', 'Arial', 'Helvetica', 'Avant Garde', sans-serif; text-anchor: end" x="41.90125" y="283.982251" transform="rotate(-0 41.90125 283.982251)">80</text>
     </g>
    </g>
    <g id="ytick_6">
     <g id="line2d_16">
      <path d="M 48.90125 205.289415 
L 1164.90125 205.289415 
" clip-path="url(#p66c7a3323d)" style="fill: none; stroke-dasharray: 2.96,1.28; stroke-dashoffset: 0; stroke: #b0b0b0; stroke-opacity: 0.7; stroke-width: 0.8"/>
     </g>
     <g id="line2d_17">
      <g>
       <use xlink:href="#m2f7541b2b7" x="48.90125" y="205.289415" style="stroke: #000000; stroke-width: 0.8"/>
      </g>
     </g>
     <g id="text_12">
      <text style="font-size: 10px; font-family: 'DejaVu Sans', 'Bitstream Vera Sans', 'Computer Modern Sans Serif', 'Lucida Grande', 'Verdana', 'Geneva', 'Lucid', 'Arial', 'Helvetica', 'Avant Garde', sans-serif; text-anchor: end" x="41.90125" y="209.088634" transform="rotate(-0 41.90125 209.088634)">100</text>
     </g>
    </g>
    <g id="ytick_7">
     <g id="line2d_18">
      <path d="M 48.90125 130.395798 
L 1164.90125 130.395798 
" clip-path="url(#p66c7a3323d)" style="fill: none; stroke-dasharray: 2.96,1.28; stroke-dashoffset: 0; stroke: #b0b0b0; stroke-opacity: 0.7; stroke-width: 0.8"/>
     </g>
     <g id="line2d_19">
      <g>
       <use xlink:href="#m2f7541b2b7" x="48.90125" y="130.395798" style="stroke: #000000; stroke-width: 0.8"/>
      </g>
     </g>
     <g id="text_13">
      <text style="font-size: 10px; font-family: 'DejaVu Sans', 'Bitstream Vera Sans', 'Computer Modern Sans Serif', 'Lucida Grande', 'Verdana', 'Geneva', 'Lucid', 'Arial', 'Helvetica', 'Avant Garde', sans-serif; text-anchor: end" x="41.90125" y="134.195017" transform="rotate(-0 41.90125 134.195017)">120</text>
     </g>
    </g>
    <g id="ytick_8">
     <g id="line2d_20">
      <path d="M 48.90125 55.502181 
L 1164.90125 55.502181 
" clip-path="url(#p66c7a3323d)" style="fill: none; stroke-dasharray: 2.96,1.28; stroke-dashoffset: 0; stroke: #b0b0b0; stroke-opacity: 0.7; stroke-width: 0.8"/>
     </g>
     <g id="line2d_21">
      <g>
       <use xlink:href="#m2f7541b2b7" x="48.90125" y="55.502181" style="stroke: #000000; stroke-width: 0.8"/>
      </g>
     </g>
     <g id="text_14">
      <text style="font-size: 10px; font-family: 'DejaVu Sans', 'Bitstream Vera Sans', 'Computer Modern Sans Serif', 'Lucida Grande', 'Verdana', 'Geneva', 'Lucid', 'Arial', 'Helvetica', 'Avant Garde', sans-serif; text-anchor: end" x="41.90125" y="59.3014" transform="rotate(-0 41.90125 59.3014)">140</text>
     </g>
    </g>
    <g id="text_15">
     <text style="font-size: 12px; font-family: 'DejaVu Sans', 'Bitstream Vera Sans', 'Computer Modern Sans Serif', 'Lucida Grande', 'Verdana', 'Geneva', 'Lucid', 'Arial', 'Helvetica', 'Avant Garde', sans-serif; text-anchor: middle" x="16.318125" y="302.5575" transform="rotate(-90 16.318125 302.5575)">Number of Ships (Absolute Count)</text>
    </g>
   </g>
   <g id="patch_3">
    <path d="M 48.90125 579.7575 
L 48.90125 25.3575 
" style="fill: none; stroke: #000000; stroke-width: 0.8; stroke-linejoin: miter; stroke-linecap: square"/>
   </g>
   <g id="patch_4">
    <path d="M 1164.90125 579.7575 
L 1164.90125 25.3575 
" style="fill: none; stroke: #000000; stroke-width: 0.8; stroke-linejoin: miter; stroke-linecap: square"/>
   </g>
   <g id="patch_5">
    <path d="M 48.90125 579.7575 
L 1164.90125 579.7575 
" style="fill: none; stroke: #000000; stroke-width: 0.8; stroke-linejoin: miter; stroke-linecap: square"/>
   </g>
   <g id="patch_6">
    <path d="M 48.90125 25.3575 
L 1164.90125 25.3575 
" style="fill: none; stroke: #000000; stroke-width: 0.8; stroke-linejoin: miter; stroke-linecap: square"/>
   </g>
   <g id="text_16">
    <text style="font-size: 16px; font-family: 'DejaVu Sans', 'Bitstream Vera Sans', 'Computer Modern Sans Serif', 'Lucida Grande', 'Verdana', 'Geneva', 'Lucid', 'Arial', 'Helvetica', 'Avant Garde', sans-serif; text-anchor: middle" x="606.90125" y="19.3575" transform="rotate(-0 606.90125 19.3575)">Fleet Status Stock Plot (All 248 Sampled Ships) [10-Year Ticks]</text>
   </g>
   <g id="legend_1">
    <g id="patch_7">
     <path d="M 55.90125 136.104375 
L 116.295 136.104375 
Q 118.295 136.104375 118.295 134.104375 
L 118.295 32.3575 
Q 118.295 30.3575 116.295 30.3575 
L 55.90125 30.3575 
Q 53.90125 30.3575 53.90125 32.3575 
L 53.90125 134.104375 
Q 53.90125 136.104375 55.90125 136.104375 
z
" style="fill: #ffffff; opacity: 0.8; stroke: #cccccc; stroke-linejoin: miter"/>
    </g>
    <g id="patch_8">
     <path d="M 57.90125 41.955938 
L 77.90125 41.955938 
L 77.90125 34.955938 
L 57.90125 34.955938 
z
" style="fill: #4b4b4b"/>
    </g>
    <g id="text_17">
     <text style="font-size: 10px; font-family: 'DejaVu Sans', 'Bitstream Vera Sans', 'Computer Modern Sans Serif', 'Lucida Grande', 'Verdana', 'Geneva', 'Lucid', 'Arial', 'Helvetica', 'Avant Garde', sans-serif; text-anchor: start" x="85.90125" y="41.955938" transform="rotate(-0 85.90125 41.955938)">C</text>
    </g>
    <g id="patch_9">
     <path d="M 57.90125 56.634063 
L 77.90125 56.634063 
L 77.90125 49.634063 
L 57.90125 49.634063 
z
" style="fill: #7a7a7a"/>
    </g>
    <g id="text_18">
     <text style="font-size: 10px; font-family: 'DejaVu Sans', 'Bitstream Vera Sans', 'Computer Modern Sans Serif', 'Lucida Grande', 'Verdana', 'Geneva', 'Lucid', 'Arial', 'Helvetica', 'Avant Garde', sans-serif; text-anchor: start" x="85.90125" y="56.634063" transform="rotate(-0 85.90125 56.634063)">F</text>
    </g>
    <g id="patch_10">
     <path d="M 57.90125 71.312188 
L 77.90125 71.312188 
L 77.90125 64.312188 
L 57.90125 64.312188 
z
" style="fill: #e07b39"/>
    </g>
    <g id="text_19">
     <text style="font-size: 10px; font-family: 'DejaVu Sans', 'Bitstream Vera Sans', 'Computer Modern Sans Serif', 'Lucida Grande', 'Verdana', 'Geneva', 'Lucid', 'Arial', 'Helvetica', 'Avant Garde', sans-serif; text-anchor: start" x="85.90125" y="71.312188" transform="rotate(-0 85.90125 71.312188)">O</text>
    </g>
    <g id="patch_11">
     <path d="M 57.90125 85.990313 
L 77.90125 85.990313 
L 77.90125 78.990313 
L 57.90125 78.990313 
z
" style="fill: #b3b3b3"/>
    </g>
    <g id="text_20">
     <text style="font-size: 10px; font-family: 'DejaVu Sans', 'Bitstream Vera Sans', 'Computer Modern Sans Serif', 'Lucida Grande', 'Verdana', 'Geneva', 'Lucid', 'Arial', 'Helvetica', 'Avant Garde', sans-serif; text-anchor: start" x="85.90125" y="85.990313" transform="rotate(-0 85.90125 85.990313)">R</text>
    </g>
    <g id="patch_12">
     <path d="M 57.90125 100.668438 
L 77.90125 100.668438 
L 77.90125 93.668438 
L 57.90125 93.668438 
z
" style="fill: #d9d9d9"/>
    </g>
    <g id="text_21">
     <text style="font-size: 10px; font-family: 'DejaVu Sans', 'Bitstream Vera Sans', 'Computer Modern Sans Serif', 'Lucida Grande', 'Verdana', 'Geneva', 'Lucid', 'Arial', 'Helvetica', 'Avant Garde', sans-serif; text-anchor: start" x="85.90125" y="100.668438" transform="rotate(-0 85.90125 100.668438)">P</text>
    </g>
    <g id="patch_13">
     <path d="M 57.90125 115.346563 
L 77.90125 115.346563 
L 77.90125 108.346563 
L 57.90125 108.346563 
z
" style="fill: #3b8ea5"/>
    </g>
    <g id="text_22">
     <text style="font-size: 10px; font-family: 'DejaVu Sans', 'Bitstream Vera Sans', 'Computer Modern Sans Serif', 'Lucida Grande', 'Verdana', 'Geneva', 'Lucid', 'Arial', 'Helvetica', 'Avant Garde', sans-serif; text-anchor: start" x="85.90125" y="115.346563" transform="rotate(-0 85.90125 115.346563)">N</text>
    </g>
    <g id="patch_14">
     <path d="M 57.90125 130.024688 
L 77.90125 130.024688 
L 77.90125 123.024688 
L 57.90125 123.024688 
z
" style="fill: #ffffff"/>
    </g>
    <g id="text_23">
     <text style="font-size: 10px; font-family: 'DejaVu Sans', 'Bitstream Vera Sans', 'Computer Modern Sans Serif', 'Lucida Grande', 'Verdana', 'Geneva', 'Lucid', 'Arial', 'Helvetica', 'Avant Garde', sans-serif; text-anchor: start" x="85.90125" y="130.024688" transform="rotate(-0 85.90125 130.024688)">Other</text>
    </g>
   </g>
  </g>
 </g>
 <defs>
  <clipPath id="p66c7a3323d">
   <rect x="48.90125" y="25.3575" width="1116" height="554.4"/>
  </clipPath>
 </defs>
</svg>
